<svg width="36" height="21" viewBox="0 0 36 21" fill="none" xmlns="http://www.w3.org/2000/svg">
<g clip-path="url(#clip0_111_89)">
<path fill-rule="evenodd" clip-rule="evenodd" d="M0.0942383 5.17262C0.0942383 4.51304 0.557676 3.88047 1.3826 3.41408C2.20753 2.94769 3.32636 2.68567 4.49298 2.68567H30.8854C32.0521 2.68567 33.1709 2.94769 33.9958 3.41408C34.8208 3.88047 35.2842 4.51304 35.2842 5.17262V15.1204C35.2842 15.78 34.8208 16.4125 33.9958 16.8789C33.1709 17.3453 32.0521 17.6073 30.8854 17.6073H4.49298C3.32636 17.6073 2.20753 17.3453 1.3826 16.8789C0.557676 16.4125 0.0942383 15.78 0.0942383 15.1204V5.17262ZM5.59267 6.41609C5.30101 6.41609 5.0213 6.48159 4.81507 6.59819C4.60884 6.71479 4.49298 6.87293 4.49298 7.03782V8.2813C4.49298 8.44619 4.60884 8.60433 4.81507 8.72093C5.0213 8.83753 5.30101 8.90303 5.59267 8.90303H9.99141C10.2831 8.90303 10.5628 8.83753 10.769 8.72093C10.9752 8.60433 11.0911 8.44619 11.0911 8.2813V7.03782C11.0911 6.87293 10.9752 6.71479 10.769 6.59819C10.5628 6.48159 10.2831 6.41609 9.99141 6.41609H5.59267ZM5.59267 10.1465C5.30101 10.1465 5.0213 10.212 4.81507 10.3286C4.60884 10.4452 4.49298 10.6033 4.49298 10.7682C4.49298 10.9331 4.60884 11.0913 4.81507 11.2079C5.0213 11.3245 5.30101 11.39 5.59267 11.39H16.5895C16.8812 11.39 17.1609 11.3245 17.3671 11.2079C17.5734 11.0913 17.6892 10.9331 17.6892 10.7682C17.6892 10.6033 17.5734 10.4452 17.3671 10.3286C17.1609 10.212 16.8812 10.1465 16.5895 10.1465H5.59267ZM5.59267 12.6335C5.30101 12.6335 5.0213 12.699 4.81507 12.8156C4.60884 12.9322 4.49298 13.0903 4.49298 13.2552C4.49298 13.4201 4.60884 13.5782 4.81507 13.6948C5.0213 13.8114 5.30101 13.8769 5.59267 13.8769H7.79204C8.0837 13.8769 8.3634 13.8114 8.56964 13.6948C8.77587 13.5782 8.89173 13.4201 8.89173 13.2552C8.89173 13.0903 8.77587 12.9322 8.56964 12.8156C8.3634 12.699 8.0837 12.6335 7.79204 12.6335H5.59267ZM12.1908 12.6335C11.8991 12.6335 11.6194 12.699 11.4132 12.8156C11.207 12.9322 11.0911 13.0903 11.0911 13.2552C11.0911 13.4201 11.207 13.5782 11.4132 13.6948C11.6194 13.8114 11.8991 13.8769 12.1908 13.8769H14.3902C14.6818 13.8769 14.9615 13.8114 15.1678 13.6948C15.374 13.5782 15.4898 13.4201 15.4898 13.2552C15.4898 13.0903 15.374 12.9322 15.1678 12.8156C14.9615 12.699 14.6818 12.6335 14.3902 12.6335H12.1908ZM18.7889 12.6335C18.4972 12.6335 18.2175 12.699 18.0113 12.8156C17.8051 12.9322 17.6892 13.0903 17.6892 13.2552C17.6892 13.4201 17.8051 13.5782 18.0113 13.6948C18.2175 13.8114 18.4972 13.8769 18.7889 13.8769H20.9883C21.2799 13.8769 21.5596 13.8114 21.7659 13.6948C21.9721 13.5782 22.088 13.4201 22.088 13.2552C22.088 13.0903 21.9721 12.9322 21.7659 12.8156C21.5596 12.699 21.2799 12.6335 20.9883 12.6335H18.7889ZM25.387 12.6335C25.0954 12.6335 24.8157 12.699 24.6094 12.8156C24.4032 12.9322 24.2873 13.0903 24.2873 13.2552C24.2873 13.4201 24.4032 13.5782 24.6094 13.6948C24.8157 13.8114 25.0954 13.8769 25.387 13.8769H27.5864C27.878 13.8769 28.1578 13.8114 28.364 13.6948C28.5702 13.5782 28.6861 13.4201 28.6861 13.2552C28.6861 13.0903 28.5702 12.9322 28.364 12.8156C28.1578 12.699 27.878 12.6335 27.5864 12.6335H25.387Z" fill="white"/>
</g>
<defs>
<clipPath id="clip0_111_89">
<rect width="35.19" height="19.8956" fill="white" transform="translate(0.0942383 0.19873)"/>
</clipPath>
</defs>
</svg>
