<svg width="82" height="115" viewBox="0 0 82 115" fill="none" xmlns="http://www.w3.org/2000/svg">
<path d="M81.5812 22.4867L78.9793 50.9522C78.9136 51.6642 78.4867 52.1363 78.0534 51.9763L64.779 47.0453V108.819H16.8102V47.0479L3.53586 51.9761C3.10241 52.136 2.67566 51.6639 2.61001 50.9519L0.00807367 22.4867C-0.0378204 21.98 0.114841 21.476 0.392277 21.2281L13.4636 9.44328C15.6672 7.45659 18.1459 6.41406 20.6663 6.41406H60.9235C63.4437 6.41406 65.9224 7.45659 68.1261 9.44328L81.1975 21.2281C81.4746 21.4758 81.6273 21.98 81.5812 22.4867V22.4867Z" fill="#42A5F5"/>
<path d="M11.8863 47.0479L2.57031 50.5064L2.61111 50.9519C2.67676 51.6639 3.10367 52.136 3.53696 51.976L11.8863 48.8761V47.0479Z" fill="#2196F3"/>
<path d="M81.1984 21.2281L68.1272 9.44328C65.9236 7.45659 63.4449 6.41406 60.9245 6.41406H55.9995C58.5197 6.41406 60.9985 7.45659 63.2022 9.44328L76.2735 21.2281C76.551 21.476 76.7036 21.9802 76.6577 22.4867L74.0966 50.506L78.0548 51.9763C78.4882 52.1363 78.915 51.6642 78.9806 50.9522L81.5826 22.4867C81.6285 21.9802 81.4758 21.476 81.1984 21.2281V21.2281Z" fill="#2196F3"/>
<path d="M59.855 52.9897V108.818H64.78V47.0443L64.2713 46.9074C61.9588 46.2842 59.855 49.1816 59.855 52.9897V52.9897Z" fill="#2196F3"/>
<path d="M50.9546 0.18576C50.9027 0.247618 45.709 6.37723 40.7955 6.37723C35.9044 6.37723 30.7358 0.303782 30.6373 0.187054C29.5454 -1.12205 26.6478 5.35878 27.7399 6.67099C28.003 6.98727 34.2584 14.4141 40.7955 14.4141C47.3325 14.4141 53.5879 6.98727 53.851 6.67099C54.9418 5.36007 52.048 -1.11895 50.9546 0.18576V0.18576Z" fill="#F3F3F3"/>
<path d="M50.9542 0.18576C50.9315 0.212677 49.934 1.38979 48.4096 2.71028C49.0652 4.27303 49.4419 6.0506 48.9256 6.67099C48.696 6.94715 43.8976 12.6432 38.3325 14.0843C39.1411 14.2937 39.9657 14.4141 40.795 14.4141C47.3321 14.4141 53.5875 6.98727 53.8506 6.67099C54.9414 5.36007 52.0475 -1.11895 50.9542 0.18576Z" fill="#E4E4E4"/>
<path d="M43.9014 35.818L46.1474 43.2083C46.4875 44.3272 47.1447 45.1026 47.905 45.282L52.9273 46.4671C55.7691 47.1377 56.9039 52.8087 54.8475 56.0639L51.2133 61.8164C50.6632 62.6873 50.4121 63.9418 50.542 65.1714L51.3999 73.2942C51.8853 77.8903 48.9146 81.3953 46.3729 79.2253L41.8807 75.3901C41.2008 74.8096 40.3884 74.8096 39.7083 75.3901L35.2161 79.2253C32.6744 81.3953 29.7035 77.8903 30.1891 73.2942L31.047 65.1714C31.1769 63.9418 30.9259 62.687 30.3757 61.8164L26.7414 56.0639C24.6851 52.809 25.8199 47.1377 28.6617 46.4671L33.684 45.282C34.4443 45.1026 35.1015 44.3272 35.4415 43.2083L37.6876 35.818C38.9585 31.6365 42.6303 31.6365 43.9014 35.818V35.818Z" fill="#FFDE5C"/>
<path d="M54.8471 56.0638C56.9035 52.8089 55.7687 47.1376 52.9269 46.467L47.9046 45.2819C47.1443 45.1025 46.4871 44.3271 46.147 43.2082L43.9009 35.8179C42.7504 32.0322 39.6322 31.6742 38.1089 34.7428C38.4544 35.2193 38.7527 35.8218 38.9759 36.5566L41.222 43.9469C41.5621 45.0658 42.2193 45.8412 42.9795 46.0206L48.0019 47.2057C50.8437 47.8763 51.9784 53.5473 49.9221 56.8024L46.2879 62.555C45.7378 63.4259 45.4867 64.6804 45.6165 65.91L46.4745 74.0328C46.6641 75.8282 46.325 77.4549 45.6914 78.6439L46.3724 79.2252C48.9141 81.3952 51.8847 77.8902 51.3994 73.2941L50.5414 65.1714C50.4115 63.9417 50.6625 62.687 51.2127 61.8163L54.8471 56.0638Z" fill="#FFC736"/>
<path d="M63.1384 114.152H18.4538C17.5471 114.152 16.812 112.959 16.812 111.486V106.152H64.7802V111.486C64.7802 112.959 64.0451 114.152 63.1384 114.152Z" fill="#F3F3F3"/>
<path d="M59.8545 106.152V114.152H63.1378C64.0446 114.152 64.7795 112.959 64.7795 111.486V106.152H59.8545Z" fill="#E4E4E4"/>
</svg>
