<svg width="74" height="119" viewBox="0 0 74 119" fill="none" xmlns="http://www.w3.org/2000/svg">
<path d="M57.3437 99.6996C57.3437 99.6996 53.742 101.261 48.8453 102.572C48.1804 102.758 47.4925 102.926 46.7871 103.093C43.8807 103.8 40.9497 104.216 38.0112 104.339C37.6759 104.348 37.3348 104.357 36.9995 104.357C36.6642 104.357 36.3231 104.348 35.9878 104.339C33.0493 104.216 30.1183 103.8 27.2118 103.093C26.5065 102.926 25.8186 102.758 25.1537 102.572C20.257 101.261 16.6553 99.6996 16.6553 99.6996C16.6553 68.8619 28.8537 45.6941 28.8537 45.6941H28.8595C29.5871 46.1242 30.3563 46.3445 31.1315 46.3448C31.5998 46.3482 32.0669 46.2702 32.5248 46.1124C35.4753 45.1084 38.5237 45.1084 41.4742 46.1124C41.9321 46.2702 42.3992 46.3482 42.8675 46.3448C43.6427 46.3445 44.4118 46.1242 45.1395 45.6941H45.1453C45.1453 45.6941 57.3437 68.8619 57.3437 99.6996Z" fill="#FED33C"/>
<path d="M45.1467 45.6967H45.1397C43.9679 46.3906 42.6979 46.5363 41.4767 46.117C38.5253 45.1101 35.4753 45.1101 32.5239 46.117C31.3027 46.5363 30.0327 46.3906 28.8609 45.6967H28.8539C27.2097 48.9955 25.7316 52.4998 24.4336 56.1762C26.063 56.7971 27.7577 56.8288 29.3956 56.2691C34.4096 54.5585 39.591 54.5585 44.605 56.2691C46.2429 56.8288 47.9376 56.7971 49.567 56.1762C48.269 52.4998 46.7909 48.9955 45.1467 45.6967V45.6967Z" fill="#4C97FC"/>
<path d="M49.4685 34.4421C49.3507 32.8266 49.0056 31.2753 48.4595 29.9062C47.9134 28.537 47.1805 27.3857 46.3166 26.5398L46.4703 26.0452C46.4703 26.0452 48.1336 19.5504 48.0313 15.298L45.1834 14.6472C44.9292 18.2602 44.2648 21.7675 43.223 24.9946V25.0012C41.9594 24.8897 40.7022 25.3613 39.5997 26.3604C38.4972 27.3596 37.5952 28.8446 37.0001 30.6406C36.4054 28.844 35.5038 27.3582 34.4015 26.3583C33.2991 25.3583 32.042 24.8858 30.7783 24.9965V24.99C29.7366 21.7628 29.0721 18.2556 28.8179 14.6426L25.97 15.2934C25.8683 19.5458 27.531 26.0405 27.531 26.0405L27.6847 26.5351C26.3437 27.8464 25.3347 29.8787 24.8364 32.272C24.3381 34.6653 24.3828 37.2649 24.9625 39.6103C25.5422 41.9557 26.6195 43.8953 28.0035 45.0855C29.3875 46.2756 30.9888 46.6395 32.5237 46.1125C35.4751 45.1056 38.5251 45.1056 41.4765 46.1125C42.508 46.4662 43.577 46.4202 44.5952 45.9784C45.6135 45.5365 46.5517 44.7114 47.3325 43.5713C48.1133 42.4311 48.7142 41.0086 49.0856 39.4212C49.457 37.8339 49.5883 36.1272 49.4685 34.4421Z" fill="#FED33C"/>
<path d="M38.0117 75.4543V104.34C37.6764 104.349 37.3353 104.358 37 104.358C36.6647 104.358 36.3236 104.349 35.9883 104.34V75.4543C35.9883 75.0229 36.0949 74.609 36.2846 74.3039C36.4743 73.9988 36.7317 73.8274 37 73.8274C37.2683 73.8274 37.5257 73.9988 37.7154 74.3039C37.9051 74.609 38.0117 75.0229 38.0117 75.4543Z" fill="#FEB500"/>
<path d="M29.6869 76.476C25.0734 85.6055 27.1836 102.312 27.2067 102.479C27.2345 102.681 27.2365 102.89 27.2125 103.093C26.5072 102.926 25.8192 102.758 25.1543 102.572C24.7901 99.3463 23.3506 83.8577 28.1144 74.4214C28.2838 74.0861 28.5291 73.8727 28.7964 73.8282C29.0636 73.7838 29.3309 73.9119 29.5394 74.1843C29.748 74.4568 29.8806 74.8513 29.9083 75.2811C29.9359 75.7108 29.8563 76.1407 29.6869 76.476V76.476Z" fill="#FEB500"/>
<path d="M48.8462 102.572C48.1814 102.758 47.4934 102.926 46.7881 103.093C46.7641 102.89 46.766 102.681 46.7939 102.479C46.817 102.312 48.9271 85.6055 44.3137 76.476C44.1443 76.1407 44.0646 75.7108 44.0923 75.2811C44.1199 74.8513 44.2526 74.4568 44.4611 74.1843C44.6697 73.9119 44.937 73.7838 45.2042 73.8282C45.4715 73.8727 45.7168 74.0861 45.8862 74.4214C50.6499 83.8577 49.2104 99.3463 48.8462 102.572V102.572Z" fill="#FEB500"/>
</svg>
