<svg width="24" height="24" viewBox="0 0 24 24" fill="none" xmlns="http://www.w3.org/2000/svg">
<g clip-path="url(#clip0_205_119)">
<path d="M24 12.0702C23.9984 9.76409 23.3401 7.50666 22.1029 5.56509C20.8658 3.62351 19.1015 2.07907 17.019 1.11453C14.9365 0.149983 12.6228 -0.194288 10.3518 0.122455C8.08087 0.439198 5.94763 1.4037 4.20459 2.90181C2.46154 4.39993 1.18163 6.36895 0.516338 8.57587C-0.148959 10.7828 -0.1718 13.1352 0.450518 15.3548C1.07284 17.5744 2.31426 19.5682 4.02789 21.1002C5.74152 22.6323 7.85561 23.6385 10.12 23.9998V15.5606H7.12V12.0702H10.12V9.41475C10.12 6.39715 11.92 4.71735 14.66 4.71735C15.5581 4.73045 16.4539 4.81115 17.34 4.95876V7.97636H15.83C15.5694 7.93573 15.3029 7.95522 15.0509 8.03337C14.7989 8.11153 14.5678 8.24629 14.3751 8.42748C14.1825 8.60867 14.0333 8.83155 13.9388 9.07926C13.8444 9.32697 13.8072 9.59303 13.83 9.85734V12.1205H17.2L16.67 15.6109H13.87V24.0501C16.7032 23.6006 19.2826 22.1451 21.1409 19.9474C22.9993 17.7498 24.0135 14.9553 24 12.0702V12.0702Z" fill="white"/>
</g>
<defs>
<clipPath id="clip0_205_119">
<rect width="24" height="24" fill="white"/>
</clipPath>
</defs>
</svg>
