<svg width="24" height="20" viewBox="0 0 24 20" fill="none" xmlns="http://www.w3.org/2000/svg">
<g clip-path="url(#clip0_205_127)">
<path d="M7.54792 20C16.6051 20 21.5613 12.306 21.5613 5.63111C21.5613 5.41089 21.5565 5.19343 21.5468 4.97873C22.5093 4.26456 23.3399 3.38037 24 2.36755C23.1017 2.77639 22.1484 3.0442 21.1723 3.16197C22.2002 2.53095 22.9697 1.53885 23.338 0.36995C22.3723 0.957222 21.3161 1.37164 20.2148 1.59543C19.4727 0.784388 18.4906 0.246931 17.4204 0.0663513C16.3503 -0.114229 15.2519 0.0721516 14.2955 0.596609C13.3392 1.12107 12.5782 1.95432 12.1306 2.96723C11.683 3.98015 11.5736 5.11617 11.8196 6.19925C9.86196 6.09874 7.94683 5.57714 6.19859 4.66833C4.45034 3.75951 2.90807 2.48381 1.67195 0.92406C1.04208 2.03555 0.848963 3.35137 1.1319 4.60371C1.41483 5.85604 2.15255 6.95076 3.1949 7.66504C2.41351 7.64017 1.64932 7.42353 0.966443 7.03331C0.966443 7.05478 0.966443 7.07542 0.966443 7.09772C0.966458 8.26281 1.35938 9.39206 2.07862 10.294C2.79785 11.196 3.79914 11.8152 4.91275 12.0467C4.49003 12.1638 4.05398 12.2227 3.61611 12.2218C3.3055 12.2216 2.99563 12.1909 2.69074 12.1301C3.00454 13.1341 3.61666 14.0122 4.44141 14.6417C5.26616 15.2712 6.26224 15.6204 7.2902 15.6406C5.54587 17.0444 3.39166 17.8056 1.17423 17.8017C0.781811 17.8021 0.389715 17.7787 0 17.7315C2.25128 19.2153 4.87169 20.0028 7.54792 20" fill="white"/>
</g>
<defs>
<clipPath id="clip0_205_127">
<rect width="24" height="20" fill="white"/>
</clipPath>
</defs>
</svg>
