<svg width="40" height="40" viewBox="0 0 40 40" fill="none" xmlns="http://www.w3.org/2000/svg">
<g clip-path="url(#clip0_51_225)">
<path d="M29.0322 17.7419V18.1947C29.0322 18.7494 29.1217 19.3005 29.2971 19.8268L30.3225 22.9032H32.258V15.8064H30.9677C29.8988 15.8065 29.0322 16.673 29.0322 17.7419Z" fill="#5A4146"/>
<path d="M37.8661 19.0822L36.7744 22.9033L31.6131 18.3872C30.9004 18.3872 30.3228 17.8094 30.3228 17.0968C30.3228 16.0279 31.1893 15.1614 32.2582 15.1614H36.7743C37.487 15.1614 38.0646 15.7391 38.0646 16.4517V17.6643C38.0647 18.1438 37.9978 18.621 37.8661 19.0822Z" fill="#694B4B"/>
<path d="M35.4832 24.8391H31.6123V27.6945H35.4832V24.8391Z" fill="#E6AF78"/>
<path d="M31.6128 26.0237C32.2112 26.2668 32.8637 26.4037 33.5483 26.4037C34.2329 26.4037 34.8854 26.2668 35.4837 26.0237V24.8386H31.6128V26.0237Z" fill="#D29B6E"/>
<path d="M38.5961 27.293L35.4836 26.4038L33.5482 27.6881L31.6128 26.4037L28.5004 27.293C27.6695 27.5304 27.0967 28.2899 27.0967 29.154V33.8709C27.0967 34.2272 27.3855 34.516 27.7418 34.516H39.3547C39.7111 34.516 39.9999 34.2272 39.9999 33.8709V29.154C39.9999 28.2898 39.427 27.5304 38.5961 27.293Z" fill="#D5DCED"/>
<path d="M34.1936 34.516H32.9033L33.2259 27.6941H33.8711L34.1936 34.516Z" fill="#AFB9D2"/>
<path d="M33.5482 25.4838C31.4103 25.4838 29.6772 23.7507 29.6772 21.6128V20.857C29.6772 20.5148 29.8132 20.1866 30.0551 19.9446L31.2251 18.7746C31.4728 18.5269 31.8115 18.3845 32.1617 18.3955C34.224 18.4606 36.0495 18.9024 37.0474 19.877C37.2917 20.1156 37.4192 20.4493 37.4192 20.7907V21.6128C37.4192 23.7507 35.6861 25.4838 33.5482 25.4838Z" fill="#F0C087"/>
<path d="M31.6127 21.0171C31.6127 20.2728 32.2377 19.6813 32.9804 19.7286C34.2829 19.8117 36.2155 20.0294 37.4012 20.5997C37.3626 20.3275 37.2456 20.0706 37.0474 19.877C36.0495 18.9024 34.224 18.4606 32.1617 18.3955L32.1616 18.3956V18.3955C31.8115 18.3845 31.4727 18.527 31.2251 18.7746L30.0552 19.9445C29.8132 20.1864 29.6772 20.5146 29.6772 20.8569V21.6128C29.6772 23.3781 30.8601 24.8644 32.4757 25.3299C31.9379 24.6664 31.6128 23.8243 31.6128 22.9031L31.6127 21.0171Z" fill="#E6AF78"/>
<path d="M37.4194 31.0764C37.4194 30.5631 37.6233 30.0708 37.9863 29.7078L39.647 28.0471C39.869 28.3644 40.0001 28.7463 40.0001 29.1541V33.8709C40.0001 34.2273 39.7112 34.5161 39.3549 34.5161H37.4194V31.0764Z" fill="#C7CFE2"/>
<path d="M33.5484 27.6882L32.4549 28.5235C32.2665 28.6674 31.9942 28.6097 31.8804 28.4018L30.8994 26.6103L31.2943 26.0081C31.3818 25.8745 31.5685 25.8518 31.6856 25.9603L33.5484 27.6882Z" fill="#C7CFE2"/>
<path d="M33.5483 27.6883L34.6419 28.5236C34.8302 28.6675 35.1026 28.6099 35.2164 28.4019L36.1973 26.6105L35.8025 26.0082C35.7149 25.8746 35.5283 25.8519 35.4112 25.9605L33.5483 27.6883Z" fill="#C7CFE2"/>
<path d="M11.5489 25.2144C10.9976 23.7536 10.5603 21.2425 10.4659 19.935C10.2862 17.4471 8.41127 15.4189 5.87674 15.4189C3.34221 15.4189 1.46729 17.4471 1.2876 19.935C1.19314 21.2424 0.755879 23.7536 0.204551 25.2144C0.0830668 25.5364 0.223301 25.8915 0.540411 26.0353C1.13119 26.303 2.3908 26.8275 3.90994 27.0318H7.84346C9.35549 26.8271 10.6239 26.3022 11.213 26.0353C11.5302 25.8915 11.6704 25.5364 11.5489 25.2144Z" fill="#5A4146"/>
<path d="M11.2126 26.0354C11.5297 25.8916 11.67 25.5366 11.5484 25.2145C10.9972 23.7537 10.5598 21.2426 10.4654 19.9352C10.2858 17.4472 8.41084 15.4191 5.87639 15.4191C5.86998 15.4191 5.86365 15.4191 5.85724 15.4191C3.91248 15.427 3.22521 18.0793 4.89935 19.0689C4.9999 19.1284 5.06435 19.157 5.06435 19.157L6.53068 27.0319H7.8431C9.35514 26.827 10.6236 26.3023 11.2126 26.0354Z" fill="#694B4B"/>
<path d="M10.543 28.3272L8.45516 27.2834C8.01797 27.0648 7.7418 26.6179 7.74187 26.1291L7.74203 24.1936H3.87094V26.1292C3.87094 26.618 3.59484 27.0647 3.15766 27.2833L1.06984 28.3272C0.414141 28.655 0 29.3252 0 30.0582V33.8709C0 34.2271 0.288828 34.516 0.645156 34.516H10.9677C11.3241 34.516 11.6129 34.2271 11.6129 33.8709V30.0583C11.6129 29.3252 11.1987 28.655 10.543 28.3272Z" fill="#E6AF78"/>
<path d="M6.80633 26.7741C7.50101 26.7741 8.1664 26.6309 8.7764 26.376C8.76039 26.2947 8.74172 26.2138 8.74172 26.129L8.74187 24.1935H4.87078V26.1291C4.87078 26.2143 4.85211 26.2956 4.83594 26.3772C5.44633 26.6308 6.11141 26.7741 6.80633 26.7741Z" fill="#D29B6E"/>
<path d="M10.543 28.3272L9.05562 27.5836C8.36594 28.6486 7.16976 29.3549 5.80648 29.3549C4.4432 29.3549 3.24695 28.6486 2.55727 27.5835L1.06992 28.3272C0.414219 28.6551 0 29.3252 0 30.0583V33.8709C0 34.2272 0.288828 34.5161 0.645156 34.5161H10.9677C11.3241 34.5161 11.6129 34.2272 11.6129 33.8709V30.0583C11.6129 29.3252 11.1987 28.6551 10.543 28.3272Z" fill="#D5DCED"/>
<path d="M5.80647 25.4838C3.83835 25.4838 2.21335 24.0151 1.96764 22.1139C1.93202 21.8385 2.06444 21.5684 2.31241 21.4433C2.60944 21.2934 3.04108 21.0408 3.45436 20.672C3.9146 20.2614 4.1846 19.8284 4.3371 19.5105C4.46842 19.2367 4.7703 19.0819 5.06452 19.157C7.33608 19.7363 8.88256 20.9181 9.44366 21.4006C9.59428 21.5302 9.68108 21.7212 9.66561 21.9193C9.50928 23.9138 7.84124 25.4838 5.80647 25.4838Z" fill="#F0C087"/>
<path d="M9.44356 21.4005C8.88254 20.918 7.33598 19.7362 5.06442 19.1568C4.7702 19.0818 4.46833 19.2366 4.337 19.5104C4.22153 19.7511 4.03067 20.0579 3.74747 20.371C3.74739 20.3718 3.74715 20.3724 3.74708 20.3732C3.65918 20.4728 3.56559 20.5726 3.45434 20.672C3.04106 21.0408 2.60942 21.2934 2.31239 21.4432C2.06442 21.5683 1.93208 21.8385 1.96762 22.114C2.18833 23.8214 3.52442 25.1804 5.21958 25.4397C4.44715 24.9142 3.87098 24.1915 3.87098 22.9032V21.9832C4.01754 21.875 4.16512 21.7672 4.3134 21.6348C4.672 21.3148 4.98504 20.9447 5.23606 20.5463C6.97379 21.0886 8.15192 21.9918 8.59856 22.3758C8.72082 22.483 9.02426 22.7627 9.37926 23.0958C9.532 22.7282 9.63301 22.3338 9.66543 21.9193C9.68098 21.7211 9.59418 21.5301 9.44356 21.4005Z" fill="#E6AF78"/>
<path d="M0.393281 28.8953C0.144766 29.2251 0 29.6297 0 30.0582V33.8709C0 34.2272 0.288828 34.516 0.645156 34.516H2.58063V31.2653C2.58063 30.8733 2.40242 30.5025 2.09633 30.2577L0.393281 28.8953Z" fill="#C7CFE2"/>
<path d="M29.2689 27.4467L23.8709 25.4838L20 26.7742L16.129 25.4838L10.731 27.4468C9.71113 27.8177 9.03223 28.7869 9.03223 29.872V33.871C9.03223 34.2272 9.32105 34.5161 9.67738 34.5161H30.3225C30.6789 34.5161 30.9677 34.2272 30.9677 33.871V29.872C30.9677 28.7868 30.2889 27.8176 29.2689 27.4467Z" fill="#FF507D"/>
<path d="M19.3244 28.0646L18.71 34.5161H21.2906L20.6761 28.0646H19.3244Z" fill="#707487"/>
<path d="M20.6774 28.9509H19.3227C19.0733 28.9509 18.8711 28.7487 18.8711 28.4992V26.7742H21.129V28.4992C21.1291 28.7486 20.9269 28.9509 20.6774 28.9509Z" fill="#5B5D6E"/>
<path d="M30.2732 28.1136C30.7088 28.5812 30.9676 29.204 30.9676 29.8719V33.8708C30.9676 34.2272 30.6788 34.516 30.3225 34.516H27.0967V32.3591C27.0967 31.6747 27.3686 31.0183 27.8525 30.5343L30.2732 28.1136Z" fill="#D23C69"/>
<path d="M27.0969 12.1789V6.7742C27.0969 6.06154 26.5192 5.48389 25.8066 5.48389H18.0647C15.2142 5.48389 12.9033 7.79467 12.9033 10.6452V12.1789C12.9033 12.8723 13.0151 13.5612 13.2344 14.219L13.4492 14.8633C13.515 15.0607 13.5485 15.2673 13.5485 15.4754V15.8065H26.4517V15.4754C26.4517 15.2673 26.4852 15.0607 26.551 14.8633L26.7658 14.219C26.9851 13.5612 27.0969 12.8722 27.0969 12.1789Z" fill="#5A4146"/>
<path d="M16.1289 8.10482C16.1289 9.55232 17.3023 10.7258 18.7498 10.7258H19.1127L19.2879 15.8064H26.4514V15.4753C26.4514 15.2672 26.4849 15.0606 26.5507 14.8633L26.7655 14.219C26.9848 13.5612 27.0966 12.8722 27.0966 12.1788V6.7742C27.0966 6.06154 26.5188 5.48389 25.8062 5.48389H18.7498C17.3023 5.48389 16.1289 6.65732 16.1289 8.10482Z" fill="#694B4B"/>
<path d="M23.8711 20.968H16.1289V26.7743H23.8711V20.968Z" fill="#E6AF78"/>
<path d="M16.129 23.1492C17.2687 23.8094 18.5881 24.1934 19.9999 24.1934C21.4117 24.1934 22.7313 23.8094 23.8709 23.1492V20.9677H16.1289L16.129 23.1492Z" fill="#D29B6E"/>
<path d="M20.0001 26.7742L17.9425 28.8319C17.6659 29.1084 17.2088 29.0772 16.9724 28.7657L14.8389 25.9544L15.3969 24.7784C15.5616 24.4314 15.9911 24.3042 16.3182 24.5058L20.0001 26.7742Z" fill="#D23C69"/>
<path d="M20 26.7742L22.0577 28.8319C22.3342 29.1084 22.7913 29.0772 23.0277 28.7657L25.1613 25.9544L24.6032 24.7784C24.4385 24.4314 24.009 24.3042 23.682 24.5058L20 26.7742Z" fill="#D23C69"/>
<path d="M20 22.9032C16.4369 22.9032 13.5483 20.0147 13.5483 16.4516V15.6957C13.5483 15.3536 13.6843 15.0254 13.9262 14.7833L14.4607 14.2489C14.7026 14.0069 14.8386 13.6787 14.8386 13.3365V11.7899C14.8386 11.4911 15.0392 11.2316 15.3299 11.1629C16.8558 10.8025 21.604 9.94888 24.8353 12.3254C25.0451 12.4797 25.1611 12.7333 25.1611 12.9937V13.3365C25.1611 13.6786 25.2971 14.0068 25.539 14.2489L26.0735 14.7833C26.3154 15.0253 26.4514 15.3535 26.4514 15.6957V16.4516C26.4516 20.0147 23.5631 22.9032 20 22.9032Z" fill="#F0C087"/>
<path d="M24.8354 12.3255C22.5627 10.654 19.5439 10.5816 17.4194 10.8105C16.5232 10.9069 15.7827 11.0561 15.3301 11.163C15.0394 11.2316 14.8387 11.4912 14.8387 11.7899V13.3364C14.8387 13.6787 14.7028 14.0069 14.4608 14.2489L13.9263 14.7833C13.6843 15.0254 13.5483 15.3536 13.5483 15.6958V16.4516C13.5483 19.7504 16.0257 22.4661 19.2204 22.8516C18.1072 21.6923 17.4193 20.1213 17.4193 18.3871V13.6714C17.4193 13.0176 17.9054 12.4712 18.5541 12.3898C20.1024 12.1957 22.9382 12.079 25.1612 13.3365V12.9937C25.1613 12.7333 25.0451 12.4797 24.8354 12.3255Z" fill="#E6AF78"/>
<path d="M8.72668 28.1136C8.29105 28.5812 8.03223 29.204 8.03223 29.8719V33.8708C8.03223 34.2272 8.32105 34.516 8.67738 34.516H11.9032V32.3591C11.9032 31.6747 11.6313 31.0183 11.1473 30.5343L8.72668 28.1136Z" fill="#D23C69"/>
</g>
<defs>
<clipPath id="clip0_51_225">
<rect width="40" height="40" fill="white"/>
</clipPath>
</defs>
</svg>
