<svg width="40" height="40" viewBox="0 0 40 40" fill="none" xmlns="http://www.w3.org/2000/svg">
<g clip-path="url(#clip0_51_186)">
<path d="M33.2744 35.9264V39.3105C33.2744 39.6914 32.9658 40 32.5848 40H7.4154C7.03441 40 6.72583 39.6914 6.72583 39.3105V35.9264C6.72583 32.3759 9.60393 29.4996 13.1552 29.4987C14.4102 29.4978 15.5153 28.8522 16.1514 27.873C16.7905 26.8909 16.7246 26.0369 16.7246 25.3466L16.7376 25.3147C13.6431 24.0338 11.4666 20.9851 11.4666 17.4277V17.1579C10.2379 17.1579 9.31173 16.1869 9.31173 15.0427V11.4604C9.28414 10.2131 9.34103 5.81448 12.5182 2.75192C16.2126 -0.808861 22.0671 -0.517517 26.308 1.38743C26.4459 1.44949 26.4416 1.64688 26.3019 1.70463L25.196 2.15975C25.0305 2.22784 25.0659 2.47178 25.2434 2.49074L25.7804 2.54849C28.3517 2.82346 30.7402 4.21984 32.221 6.5437C32.2607 6.60663 32.2495 6.70231 32.1986 6.75661C31.2849 7.72287 30.7747 9.00548 30.7747 10.3389V15.0427C30.7747 16.2106 29.8274 17.1579 28.6594 17.1579H28.5335V17.4277C28.5335 20.9851 26.3571 24.0338 23.2626 25.3147L23.2756 25.3466C23.2756 26.017 23.2043 26.8826 23.8488 27.873C24.4849 28.8522 25.5899 29.4978 26.845 29.4987C30.3963 29.4996 33.2744 32.3759 33.2744 35.9264Z" fill="#FFDFBA"/>
<path d="M33.2744 35.9264V39.3105C33.2744 39.6913 32.9656 40 32.5848 40H7.4154C7.03459 40 6.72583 39.6913 6.72583 39.3105V35.9264C6.72583 32.376 9.60436 29.5 13.1548 29.4987C14.4102 29.4983 15.5155 28.8519 16.1514 27.873C18.3713 29.7695 21.6276 29.7707 23.8488 27.873C24.4846 28.8519 25.59 29.4983 26.8454 29.4987C30.3958 29.5 33.2744 32.376 33.2744 35.9264V35.9264Z" fill="#FE4F60"/>
<path d="M32.2206 6.54408C32.2606 6.60692 32.2494 6.70208 32.1983 6.75621C31.2848 7.72317 30.7745 9.00534 30.7745 10.3389V15.0426C30.7745 16.1104 29.9701 17.1579 28.5334 17.1579V11.8335C28.5334 9.54846 26.6811 7.6961 24.396 7.6961H15.604C13.3189 7.6961 11.4665 9.54846 11.4665 11.8335V17.1579C10.2378 17.1579 9.31162 16.1869 9.31162 15.0426V11.4603C9.28403 10.213 9.34092 5.81443 12.5181 2.75187C16.2122 -0.808997 22.0673 -0.51748 26.3075 1.38764C26.4454 1.44961 26.4418 1.64709 26.3019 1.70467L25.1959 2.15996C25.0306 2.22805 25.0654 2.47173 25.2431 2.49078L25.7803 2.54844C28.352 2.82315 30.7399 4.21954 32.2206 6.54408V6.54408Z" fill="#42434D"/>
<path d="M28.5335 17.4278C28.5335 22.1424 24.7108 25.9612 20 25.9612C15.5616 25.9612 11.4666 22.5107 11.4666 17.158V11.8336C11.4666 9.54853 13.3189 7.69617 15.604 7.69617H24.396C26.6811 7.69617 28.5335 9.54853 28.5335 11.8336V17.4278Z" fill="#FFEBD2"/>
<path d="M27.9819 38.5347H25.9132C25.5324 38.5347 25.2236 38.2259 25.2236 37.8451C25.2236 37.4643 25.5324 37.1555 25.9132 37.1555H27.9819C28.3627 37.1555 28.6715 37.4643 28.6715 37.8451C28.6715 38.2259 28.3628 38.5347 27.9819 38.5347Z" fill="white"/>
<path d="M18.0678 22.938C19.4708 23.8158 18.3645 25.9683 16.8287 25.3519C13.6709 24.0844 11.4666 21.0072 11.4666 17.4277V11.8335C11.4666 10.9643 11.7346 10.1577 12.1925 9.49172C12.754 8.67518 14.0524 9.03591 14.0524 10.1096V15.7037C14.0524 18.8508 15.7067 21.4608 18.0678 22.938Z" fill="#FFF3E4"/>
<path d="M23.3729 26.7619C21.2493 27.6509 18.9155 27.7198 16.6272 26.7619C16.7441 26.277 16.7246 25.9629 16.7246 25.3466L16.7375 25.3147C18.8133 26.1763 21.1828 26.178 23.2626 25.3147L23.2755 25.3466C23.2755 25.9632 23.2561 26.2772 23.3729 26.7619Z" fill="#FFD6A6"/>
<path d="M16.6283 31.581C16.3095 31.6812 15.9676 31.7365 15.6011 31.7396C12.0416 31.771 9.13933 34.5856 9.13933 38.1453V38.7933C9.13933 39.4598 8.59905 40 7.93258 40H7.4154C7.03459 40 6.72583 39.6913 6.72583 39.3105V35.9264C6.72583 32.3759 9.60436 29.5 13.1548 29.4987C14.4102 29.4983 15.5155 28.8519 16.1514 27.873C16.4078 28.092 16.6822 28.2888 16.9713 28.4611C18.243 29.2188 18.0403 31.137 16.6283 31.581Z" fill="#FF6D7A"/>
<path d="M23.3719 31.581C23.6906 31.6812 24.0325 31.7365 24.399 31.7396C27.9585 31.771 30.8608 34.5856 30.8608 38.1453V38.7933C30.8608 39.4598 31.4011 40 32.0675 40H32.5847C32.9655 40 33.2743 39.6913 33.2743 39.3105V35.9264C33.2743 32.3759 30.3958 29.5 26.8453 29.4987C25.59 29.4983 24.4847 28.8519 23.8487 27.873C23.5923 28.092 23.3179 28.2888 23.0288 28.4611C21.7572 29.2188 21.9598 31.137 23.3719 31.581V31.581Z" fill="#E84857"/>
<path d="M26.3018 1.70463C25.2883 2.12173 25.1438 2.21371 24.7927 2.15923C19.1318 1.28175 14.1652 3.62397 12.4785 9.1227V9.12356C11.8475 9.84934 11.4665 10.7975 11.4665 11.8336V15.0679C11.4665 16.4633 9.31162 16.5604 9.31162 15.0427V11.4603C9.28403 10.2131 9.34092 5.81448 12.5181 2.75192C16.2125 -0.808861 22.067 -0.517516 26.3078 1.38743C26.4457 1.44949 26.4414 1.64688 26.3018 1.70463V1.70463Z" fill="#4D4E59"/>
</g>
<defs>
<clipPath id="clip0_51_186">
<rect width="40" height="40" fill="white"/>
</clipPath>
</defs>
</svg>
