<svg width="77" height="86" viewBox="0 0 77 86" fill="none" xmlns="http://www.w3.org/2000/svg">
<path d="M72.0292 39.0173L62.5922 13.4861L58.3843 25.1952L60.1408 36.4424L58.9497 50.8826L58.9588 50.8843L64.0525 70.4913L75.237 69.7691L72.0292 39.0173Z" fill="#ED6337"/>
<path d="M50.1281 9.78914L38.4999 24.3688L26.7935 9.69172L26.804 9.68164C29.6659 13.4139 47.0165 13.4441 50.1085 9.77066L50.1281 9.78914Z" fill="#5484D9"/>
<path d="M62.5805 13.4543L62.5926 13.4863L58.3846 25.1954L60.1412 36.4426L58.9501 50.8828L57.3996 69.6903H38.5V24.369L50.1282 9.78927L50.2861 9.59106L62.5805 13.4543Z" fill="#EDB740"/>
<path d="M57.3996 69.6902L56.8462 76.4089H38.5V69.6902H57.3996Z" fill="#DB5531"/>
<path d="M38.4997 69.6902V76.4089H20.1535L19.6001 69.6902H38.4997Z" fill="#ED6337"/>
<path d="M26.7939 9.69185L26.7142 9.59106L14.4197 13.4543L14.4077 13.4863L18.6156 25.1954L16.8591 36.4426L19.6007 69.6903H38.5003V24.369L26.7939 9.69185Z" fill="#F9D438"/>
<path d="M18.6155 25.1952L14.4075 13.4861L4.97053 39.0173L1.7627 69.7691L12.9472 70.4913L18.041 50.8843L18.05 50.8826L16.8589 36.4424L18.6155 25.1952Z" fill="#ED6337"/>
<path d="M74.5007 69.8162L74.9835 75.5892L65.8232 76.2813L65.0367 70.4696L65.0352 70.4276L74.5007 69.8162Z" fill="#E8A467"/>
<path d="M11.9654 70.4276L11.9639 70.4696L11.1774 76.2813L2.01709 75.5892L2.49984 69.8162L11.9654 70.4276Z" fill="#E8A467"/>
<path d="M19.6001 69.6902L20.1535 76.4089H24.6653L24.1118 69.6902H19.6001Z" fill="#FFB5A4"/>
<path d="M2.49984 69.8162L2.01709 75.5892L6.52881 75.9252L7.01156 70.1521L2.49984 69.8162Z" fill="#FFC392"/>
<path d="M16.7236 19.9305L14.4075 13.4861L4.97053 39.0173L1.7627 69.769L6.29637 70.0618L9.48225 39.5212L16.7236 19.9305Z" fill="#FFB5A4"/>
<path d="M21.3708 36.4427L23.1274 25.1955L18.4813 12.1782L14.4197 13.4544L14.4077 13.4864L18.6156 25.1955L16.8591 36.4427L19.6007 69.6904H24.1124L21.3708 36.4427Z" fill="#FFF655"/>
<path d="M35.9604 32.1941H34.3062C34.0668 32.1941 33.8373 32.0879 33.6681 31.8989C33.4989 31.7099 33.4038 31.4536 33.4038 31.1863C33.4038 30.919 33.4989 30.6626 33.6681 30.4736C33.8373 30.2846 34.0668 30.1785 34.3062 30.1785H35.9604C36.1998 30.1785 36.4293 30.2846 36.5985 30.4736C36.7677 30.6626 36.8628 30.919 36.8628 31.1863C36.8628 31.4536 36.7677 31.7099 36.5985 31.8989C36.4293 32.0879 36.1998 32.1941 35.9604 32.1941V32.1941Z" fill="#D6A034"/>
<path d="M35.9604 38.9128H34.3062C34.0668 38.9128 33.8373 38.8067 33.6681 38.6177C33.4989 38.4287 33.4038 38.1723 33.4038 37.905C33.4038 37.6377 33.4989 37.3814 33.6681 37.1924C33.8373 37.0034 34.0668 36.8972 34.3062 36.8972H35.9604C36.1998 36.8972 36.4293 37.0034 36.5985 37.1924C36.7677 37.3814 36.8628 37.6377 36.8628 37.905C36.8628 38.1723 36.7677 38.4287 36.5985 38.6177C36.4293 38.8067 36.1998 38.9128 35.9604 38.9128V38.9128Z" fill="#D6A034"/>
<path d="M35.9604 45.6316H34.3062C34.0668 45.6316 33.8373 45.5254 33.6681 45.3364C33.4989 45.1474 33.4038 44.8911 33.4038 44.6238C33.4038 44.3565 33.4989 44.1001 33.6681 43.9111C33.8373 43.7221 34.0668 43.616 34.3062 43.616H35.9604C36.1998 43.616 36.4293 43.7221 36.5985 43.9111C36.7677 44.1001 36.8628 44.3565 36.8628 44.6238C36.8628 44.8911 36.7677 45.1474 36.5985 45.3364C36.4293 45.5254 36.1998 45.6316 35.9604 45.6316V45.6316Z" fill="#D6A034"/>
<path d="M35.9604 52.3503H34.3062C34.0668 52.3503 33.8373 52.2442 33.6681 52.0552C33.4989 51.8662 33.4038 51.6098 33.4038 51.3425C33.4038 51.0752 33.4989 50.8189 33.6681 50.6299C33.8373 50.4409 34.0668 50.3347 34.3062 50.3347H35.9604C36.1998 50.3347 36.4293 50.4409 36.5985 50.6299C36.7677 50.8189 36.8628 51.0752 36.8628 51.3425C36.8628 51.6098 36.7677 51.8662 36.5985 52.0552C36.4293 52.2442 36.1998 52.3503 35.9604 52.3503V52.3503Z" fill="#D6A034"/>
<path d="M35.9604 59.0691H34.3062C34.0668 59.0691 33.8373 58.9629 33.6681 58.7739C33.4989 58.5849 33.4038 58.3286 33.4038 58.0613C33.4038 57.794 33.4989 57.5376 33.6681 57.3486C33.8373 57.1596 34.0668 57.0535 34.3062 57.0535H35.9604C36.1998 57.0535 36.4293 57.1596 36.5985 57.3486C36.7677 57.5376 36.8628 57.794 36.8628 58.0613C36.8628 58.3286 36.7677 58.5849 36.5985 58.7739C36.4293 58.9629 36.1998 59.0691 35.9604 59.0691V59.0691Z" fill="#D6A034"/>
<path d="M35.9604 65.7878H34.3062C34.0668 65.7878 33.8373 65.6817 33.6681 65.4927C33.4989 65.3037 33.4038 65.0473 33.4038 64.78C33.4038 64.5127 33.4989 64.2564 33.6681 64.0674C33.8373 63.8784 34.0668 63.7722 34.3062 63.7722H35.9604C36.0789 63.7722 36.1963 63.7983 36.3058 63.8489C36.4152 63.8996 36.5147 63.9738 36.5985 64.0674C36.6823 64.161 36.7488 64.2721 36.7941 64.3944C36.8395 64.5166 36.8628 64.6477 36.8628 64.78C36.8628 64.9124 36.8395 65.0434 36.7941 65.1657C36.7488 65.288 36.6823 65.3991 36.5985 65.4927C36.5147 65.5862 36.4152 65.6605 36.3058 65.7111C36.1963 65.7618 36.0789 65.7878 35.9604 65.7878V65.7878Z" fill="#D6A034"/>
<path d="M10.9265 35.4079C10.7782 35.4079 10.6322 35.367 10.5014 35.289C10.3706 35.2109 10.2591 35.098 10.1767 34.9603C10.0942 34.8226 10.0434 34.6644 10.0288 34.4995C10.0142 34.3347 10.0362 34.1684 10.0928 34.0153L13.0271 26.0771C13.1186 25.8304 13.2941 25.6344 13.5149 25.5321C13.7358 25.4298 13.9839 25.4296 14.205 25.5315C14.426 25.6334 14.6017 25.829 14.6936 26.0756C14.7855 26.3221 14.7861 26.5993 14.6952 26.8462L11.7606 34.7846C11.6925 34.969 11.5768 35.1267 11.4283 35.2377C11.2798 35.3487 11.1052 35.4079 10.9265 35.4079V35.4079Z" fill="#F4F8FC"/>
<path d="M9.05161 40.4806C8.90329 40.4806 8.75726 40.4397 8.62645 40.3616C8.49563 40.2836 8.38407 40.1707 8.30163 40.033C8.21919 39.8952 8.16842 39.737 8.1538 39.5721C8.13919 39.4073 8.16119 39.2409 8.21785 39.0878L9.13703 36.6005C9.22858 36.3539 9.40405 36.1578 9.6249 36.0555C9.84574 35.9532 10.0939 35.953 10.3149 36.0549C10.5359 36.1568 10.7117 36.3525 10.8036 36.599C10.8955 36.8455 10.8961 37.1227 10.8052 37.3697L9.88597 39.8568C9.81787 40.0414 9.7022 40.1992 9.55365 40.3103C9.40511 40.4213 9.23037 40.4806 9.05161 40.4806V40.4806Z" fill="#F4F8FC"/>
</svg>
