<svg width="36" height="20" viewBox="0 0 36 20" fill="none" xmlns="http://www.w3.org/2000/svg">
<g clip-path="url(#clip0_111_134)">
<path fill-rule="evenodd" clip-rule="evenodd" d="M0.917969 5.2543C0.917969 4.60323 1.37877 3.97882 2.19901 3.51845C3.01925 3.05807 4.13173 2.79944 5.29172 2.79944H31.5342C32.6942 2.79944 33.8067 3.05807 34.6269 3.51845C35.4472 3.97882 35.908 4.60323 35.908 5.2543V15.0737C35.908 15.7248 35.4472 16.3492 34.6269 16.8096C33.8067 17.2699 32.6942 17.5286 31.5342 17.5286H5.29172C4.13173 17.5286 3.01925 17.2699 2.19901 16.8096C1.37877 16.3492 0.917969 15.7248 0.917969 15.0737V5.2543ZM6.38516 6.48172C6.09516 6.48172 5.81704 6.54638 5.61198 6.66148C5.40692 6.77657 5.29172 6.93267 5.29172 7.09544V8.32287C5.29172 8.48563 5.40692 8.64173 5.61198 8.75683C5.81704 8.87192 6.09516 8.93658 6.38516 8.93658H10.7589C11.0489 8.93658 11.327 8.87192 11.5321 8.75683C11.7371 8.64173 11.8523 8.48563 11.8523 8.32287V7.09544C11.8523 6.93267 11.7371 6.77657 11.5321 6.66148C11.327 6.54638 11.0489 6.48172 10.7589 6.48172H6.38516ZM6.38516 10.164C6.09516 10.164 5.81704 10.2287 5.61198 10.3438C5.40692 10.4589 5.29172 10.615 5.29172 10.7777C5.29172 10.9405 5.40692 11.0966 5.61198 11.2117C5.81704 11.3268 6.09516 11.3914 6.38516 11.3914H17.3195C17.6095 11.3914 17.8877 11.3268 18.0927 11.2117C18.2978 11.0966 18.413 10.9405 18.413 10.7777C18.413 10.615 18.2978 10.4589 18.0927 10.3438C17.8877 10.2287 17.6095 10.164 17.3195 10.164H6.38516ZM6.38516 12.6189C6.09516 12.6189 5.81704 12.6835 5.61198 12.7986C5.40692 12.9137 5.29172 13.0698 5.29172 13.2326C5.29172 13.3953 5.40692 13.5514 5.61198 13.6665C5.81704 13.7816 6.09516 13.8463 6.38516 13.8463H8.57203C8.86203 13.8463 9.14015 13.7816 9.34521 13.6665C9.55027 13.5514 9.66547 13.3953 9.66547 13.2326C9.66547 13.0698 9.55027 12.9137 9.34521 12.7986C9.14015 12.6835 8.86203 12.6189 8.57203 12.6189H6.38516ZM12.9458 12.6189C12.6558 12.6189 12.3777 12.6835 12.1726 12.7986C11.9675 12.9137 11.8523 13.0698 11.8523 13.2326C11.8523 13.3953 11.9675 13.5514 12.1726 13.6665C12.3777 13.7816 12.6558 13.8463 12.9458 13.8463H15.1327C15.4227 13.8463 15.7008 13.7816 15.9058 13.6665C16.1109 13.5514 16.2261 13.3953 16.2261 13.2326C16.2261 13.0698 16.1109 12.9137 15.9058 12.7986C15.7008 12.6835 15.4227 12.6189 15.1327 12.6189H12.9458ZM19.5064 12.6189C19.2164 12.6189 18.9383 12.6835 18.7332 12.7986C18.5282 12.9137 18.413 13.0698 18.413 13.2326C18.413 13.3953 18.5282 13.5514 18.7332 13.6665C18.9383 13.7816 19.2164 13.8463 19.5064 13.8463H21.6933C21.9833 13.8463 22.2614 13.7816 22.4665 13.6665C22.6715 13.5514 22.7867 13.3953 22.7867 13.2326C22.7867 13.0698 22.6715 12.9137 22.4665 12.7986C22.2614 12.6835 21.9833 12.6189 21.6933 12.6189H19.5064ZM26.067 12.6189C25.777 12.6189 25.4989 12.6835 25.2939 12.7986C25.0888 12.9137 24.9736 13.0698 24.9736 13.2326C24.9736 13.3953 25.0888 13.5514 25.2939 13.6665C25.4989 13.7816 25.777 13.8463 26.067 13.8463H28.2539C28.5439 13.8463 28.822 13.7816 29.0271 13.6665C29.2322 13.5514 29.3474 13.3953 29.3474 13.2326C29.3474 13.0698 29.2322 12.9137 29.0271 12.7986C28.822 12.6835 28.5439 12.6189 28.2539 12.6189H26.067Z" fill="white"/>
</g>
<defs>
<clipPath id="clip0_111_134">
<rect width="34.99" height="19.6389" fill="white" transform="translate(0.917969 0.344604)"/>
</clipPath>
</defs>
</svg>
