<svg width="76" height="89" viewBox="0 0 76 89" fill="none" xmlns="http://www.w3.org/2000/svg">
<g clip-path="url(#clip0_111_102)">
<path d="M66.9548 89.3648H51.4449L38.7102 24.0396C38.6228 23.5901 37.9157 23.5901 37.8283 24.0396L25.0936 89.3648H9.5835L12.4371 15.1471L14.0172 11.1595L12.9474 1.87891H63.5911L61.5454 7.97021L64.1014 15.1471L66.9548 89.3648Z" fill="#80B4FB"/>
<path d="M66.9542 89.3648H61.5224L58.1606 1.87891H63.5904L61.5448 7.97002L64.1006 15.1471L66.9542 89.3648Z" fill="#61A2F9"/>
<path d="M63.589 -3.94805V1.8771H12.9473V-3.94805C12.9473 -5.0816 13.9488 -6 15.185 -6H32.6804L38.2681 -3.75082L43.8559 -6H61.3513C62.5875 -6 63.589 -5.0816 63.589 -3.94805Z" fill="#8B818E"/>
<path d="M32.6802 -6H43.8552V1.8781H32.6802V-6Z" fill="#FFE07D"/>
<path d="M63.5897 1.8781H58.1636V-6H61.3515C62.5877 -6 63.5897 -5.0812 63.5897 -3.94765V1.8781Z" fill="#756E78"/>
<path d="M52.7378 1.87805L54.4769 8.25723C55.5808 12.306 59.5478 15.1464 64.099 15.1464H64.0997L63.5898 1.87805H52.7378Z" fill="#BED8FB"/>
<path d="M64.0992 15.1464H64.0999L63.59 1.87805H58.1602L58.6118 13.6266C60.1967 14.5928 62.0909 15.1464 64.0992 15.1464Z" fill="#9DC6FB"/>
<path d="M23.7989 1.87805L22.0598 8.25723C20.9559 12.306 16.9889 15.1464 12.4377 15.1464H12.437L12.9469 1.87805H23.7989Z" fill="#BED8FB"/>
<path d="M36.5906 30.3902L37.8285 24.0405C37.9165 23.5895 38.6219 23.5895 38.7097 24.0405L39.9476 30.3902V1.87805H36.5903V30.3902H36.5906Z" fill="#61A2F9"/>
<path d="M51.0596 -6H54.4168V1.8789H51.0596V-6Z" fill="#756E78"/>
<path d="M22.1211 -6H25.4783V1.8789H22.1211V-6Z" fill="#756E78"/>
</g>
<defs>
<clipPath id="clip0_111_102">
<rect width="76" height="89" fill="white"/>
</clipPath>
</defs>
</svg>
