<svg width="87" height="113" viewBox="0 0 87 113" fill="none" xmlns="http://www.w3.org/2000/svg">
<path d="M86.7203 22.9086L83.9599 50.7217C83.8902 51.4174 83.4373 51.8787 82.9776 51.7224L68.8947 46.9043V107.263H18.0041V46.9069L3.92115 51.7221C3.46131 51.8784 3.00856 51.4171 2.93891 50.7214L0.178487 22.9086C0.129798 22.4134 0.291758 21.921 0.586093 21.6788L14.4536 10.164C16.7914 8.22286 19.4211 7.20422 22.095 7.20422H64.8043C67.478 7.20422 70.1077 8.22286 72.4457 10.164L86.3132 21.6788C86.6072 21.9208 86.7692 22.4134 86.7203 22.9086V22.9086Z" fill="#42A5F5"/>
<path d="M12.7804 46.9067L2.89697 50.2861L2.94025 50.7213C3.0099 51.417 3.46282 51.8783 3.92249 51.722L12.7804 48.6931V46.9067Z" fill="#2196F3"/>
<path d="M86.3143 21.6788L72.4469 10.164C70.1092 8.22286 67.4794 7.20422 64.8056 7.20422H59.5806C62.2543 7.20422 64.884 8.22286 67.2219 10.164L81.0895 21.6788C81.3838 21.921 81.5458 22.4137 81.4971 22.9086L78.7799 50.2857L82.9792 51.7224C83.4391 51.8787 83.8918 51.4174 83.9615 50.7217L86.7219 22.9086C86.7706 22.4137 86.6086 21.921 86.3143 21.6788V21.6788Z" fill="#2196F3"/>
<path d="M63.6709 52.7123V107.262H68.8959V46.9033L68.3562 46.7695C65.9028 46.1605 63.6709 48.9916 63.6709 52.7123V52.7123Z" fill="#2196F3"/>
<path d="M54.2286 1.11857C54.1735 1.17901 48.6635 7.16816 43.4506 7.16816C38.2617 7.16816 32.7782 1.23389 32.6737 1.11984C31.5153 -0.15927 28.4413 6.17304 29.5998 7.45519C29.879 7.76422 36.5154 15.0208 43.4506 15.0208C50.3858 15.0208 57.0223 7.76422 57.3014 7.45519C58.4587 6.17431 55.3885 -0.156235 54.2286 1.11857V1.11857Z" fill="#F3F3F3"/>
<path d="M54.2274 1.11857C54.2034 1.14487 53.145 2.29501 51.5278 3.58524C52.2233 5.11218 52.623 6.84901 52.0752 7.45519C51.8316 7.72502 46.741 13.2906 40.8369 14.6987C41.6947 14.9032 42.5696 15.0208 43.4494 15.0208C50.3846 15.0208 57.0211 7.76422 57.3002 7.45519C58.4574 6.17431 55.3873 -0.156235 54.2274 1.11857Z" fill="#E4E4E4"/>
<path d="M46.7454 35.9345L49.1283 43.1554C49.4891 44.2487 50.1863 45.0063 50.9929 45.1816L56.3212 46.3396C59.336 46.9948 60.5399 52.5358 58.3583 55.7164L54.5027 61.3371C53.9191 62.188 53.6527 63.4138 53.7905 64.6153L54.7007 72.5519C55.2157 77.0427 52.064 80.4673 49.3675 78.3471L44.6017 74.5998C43.8803 74.0326 43.0185 74.0326 42.2969 74.5998L37.5311 78.3471C34.8346 80.4673 31.6828 77.0427 32.1979 72.5519L33.1081 64.6153C33.2459 63.4138 32.9796 62.1878 32.3959 61.3371L28.5403 55.7164C26.3587 52.5361 27.5626 46.9948 30.5774 46.3396L35.9057 45.1816C36.7123 45.0063 37.4095 44.2487 37.7703 43.1554L40.1532 35.9345C41.5015 31.8488 45.397 31.8488 46.7454 35.9345V35.9345Z" fill="#FFDE5C"/>
<path d="M58.3574 55.7163C60.539 52.536 59.3351 46.9947 56.3202 46.3395L50.9919 45.1815C50.1854 45.0062 49.4881 44.2486 49.1274 43.1554L46.7445 35.9344C45.5238 32.2354 42.2157 31.8857 40.5996 34.8839C40.9661 35.3495 41.2826 35.9382 41.5195 36.6561L43.9024 43.8771C44.2632 44.9703 44.9604 45.728 45.7669 45.9032L51.0952 47.0612C54.1101 47.7164 55.314 53.2575 53.1324 56.438L49.2768 62.0587C48.6932 62.9097 48.4268 64.1355 48.5646 65.3369L49.4748 73.2736C49.676 75.0278 49.3162 76.6172 48.644 77.779L49.3664 78.347C52.0629 80.4672 55.2146 77.0426 54.6996 72.5518L53.7894 64.6152C53.6516 63.4137 53.9179 62.1877 54.5016 61.337L58.3574 55.7163Z" fill="#FFC736"/>
<path d="M67.154 112.474H19.7477C18.7857 112.474 18.0059 111.307 18.0059 109.868V104.657H68.8958V109.868C68.8958 111.307 68.1159 112.474 67.154 112.474Z" fill="#F3F3F3"/>
<path d="M63.6704 104.657V112.474H67.1537C68.1157 112.474 68.8954 111.307 68.8954 109.868V104.657H63.6704Z" fill="#E4E4E4"/>
</svg>
