<svg width="164" height="169" viewBox="0 0 164 169" fill="none" xmlns="http://www.w3.org/2000/svg">
<path d="M163.981 33.2307L158.751 75.3046C158.619 76.357 157.761 77.0548 156.89 76.8184L130.208 69.53V160.836H33.7891V69.5338L7.10719 76.818C6.23596 77.0544 5.37818 76.3566 5.24621 75.3042L0.0162283 33.2307C-0.0760202 32.4816 0.230834 31.7368 0.78849 31.3703L27.0623 13.9515C31.4916 11.015 36.4739 9.47412 41.5399 9.47412H122.458C127.524 9.47412 132.506 11.015 136.936 13.9515L163.21 31.3703C163.767 31.7364 164.074 32.4816 163.981 33.2307V33.2307Z" fill="#42A5F5"/>
<path d="M24.892 69.5337L6.1665 74.6457L6.2485 75.3041C6.38047 76.3565 7.23857 77.0543 8.10949 76.8179L24.892 72.236V69.5337Z" fill="#2196F3"/>
<path d="M163.212 31.3703L136.938 13.9515C132.509 11.015 127.526 9.47412 122.46 9.47412H112.561C117.627 9.47412 122.609 11.015 127.039 13.9515L153.312 31.3703C153.87 31.7368 154.177 32.482 154.085 33.2307L148.937 74.6451L156.893 76.8183C157.764 77.0548 158.622 76.357 158.754 75.3046L163.984 33.2307C164.076 32.482 163.769 31.7368 163.212 31.3703V31.3703Z" fill="#2196F3"/>
<path d="M120.311 78.316V160.835H130.21V69.5284L129.188 69.326C124.539 68.4049 120.311 72.6875 120.311 78.316V78.316Z" fill="#2196F3"/>
<path d="M102.42 0.268264C102.316 0.359694 91.8766 9.41969 82.0002 9.41969C72.169 9.41969 61.7799 0.442708 61.5819 0.270177C59.3872 -1.66478 53.563 7.91435 55.7581 9.85389C56.2869 10.3214 68.8606 21.2987 82.0002 21.2987C95.1399 21.2987 107.714 10.3214 108.242 9.85389C110.435 7.91626 104.618 -1.66019 102.42 0.268264V0.268264Z" fill="#F3F3F3"/>
<path d="M102.42 0.268264C102.374 0.308049 100.369 2.0479 97.3051 3.99969C98.6228 6.30954 99.38 8.93691 98.3422 9.85389C97.8807 10.2621 88.2359 18.6813 77.0498 20.8114C78.675 21.1208 80.3326 21.2987 81.9995 21.2987C95.1392 21.2987 107.713 10.3214 108.242 9.85389C110.434 7.91626 104.617 -1.66019 102.42 0.268264Z" fill="#E4E4E4"/>
<path d="M88.2432 52.9352L92.758 63.8586C93.4415 65.5124 94.7624 66.6585 96.2906 66.9236L106.386 68.6753C112.098 69.6665 114.379 78.0486 110.245 82.86L102.941 91.3626C101.835 92.6499 101.33 94.5042 101.591 96.3217L103.316 108.328C104.291 115.121 98.3201 120.302 93.2112 117.094L84.1817 111.426C82.815 110.568 81.1821 110.568 79.815 111.426L70.7855 117.094C65.6766 120.302 59.7051 115.121 60.6811 108.328L62.4056 96.3217C62.6667 94.5042 62.1622 92.6495 61.0562 91.3626L53.7512 82.86C49.618 78.049 51.8989 69.6665 57.6109 68.6753L67.7061 66.9236C69.2343 66.6585 70.5552 65.5124 71.2387 63.8586L75.7535 52.9352C78.3079 46.7547 85.6885 46.7547 88.2432 52.9352V52.9352Z" fill="#FFDE5C"/>
<path d="M110.245 82.8599C114.378 78.0489 112.097 69.6664 106.385 68.6752L96.2897 66.9235C94.7615 66.6584 93.4406 65.5123 92.7571 63.8585L88.2423 52.9351C85.9297 47.3395 79.6619 46.8104 76.6001 51.3459C77.2945 52.0502 77.8941 52.9408 78.3429 54.0269L82.8576 64.9503C83.5412 66.6041 84.8621 67.7502 86.3903 68.0153L96.4854 69.767C102.197 70.7582 104.478 79.1403 100.345 83.9517L93.0402 92.4543C91.9345 93.7416 91.4297 95.5958 91.6907 97.4133L93.4153 109.419C93.7964 112.073 93.1148 114.477 91.8413 116.235L93.21 117.094C98.3189 120.301 104.29 115.121 103.314 108.328L101.59 96.3215C101.329 94.504 101.833 92.6494 102.939 91.3625L110.245 82.8599Z" fill="#FFC736"/>
<path d="M126.91 168.719H37.0926C35.2701 168.719 33.7925 166.954 33.7925 164.778V156.894H130.21V164.778C130.21 166.954 128.733 168.719 126.91 168.719Z" fill="#F3F3F3"/>
<path d="M120.31 156.894V168.719H126.909C128.732 168.719 130.209 166.954 130.209 164.777V156.894H120.31Z" fill="#E4E4E4"/>
</svg>
