<svg width="28" height="21" viewBox="0 0 28 21" fill="none" xmlns="http://www.w3.org/2000/svg">
<g clip-path="url(#clip0_91_156)">
<path fill-rule="evenodd" clip-rule="evenodd" d="M0.478027 5.79501C0.478027 5.1482 0.830433 4.52788 1.45772 4.07051C2.08501 3.61315 2.93579 3.3562 3.82291 3.3562H23.8922C24.7793 3.3562 25.6301 3.61315 26.2574 4.07051C26.8846 4.52788 27.2371 5.1482 27.2371 5.79501V15.5503C27.2371 16.1971 26.8846 16.8174 26.2574 17.2748C25.6301 17.7321 24.7793 17.9891 23.8922 17.9891H3.82291C2.93579 17.9891 2.08501 17.7321 1.45772 17.2748C0.830433 16.8174 0.478027 16.1971 0.478027 15.5503V5.79501ZM4.65913 7.01442C4.43735 7.01442 4.22465 7.07866 4.06783 7.193C3.91101 7.30734 3.82291 7.46242 3.82291 7.62412V8.84353C3.82291 9.00523 3.91101 9.16031 4.06783 9.27465C4.22465 9.38899 4.43735 9.45323 4.65913 9.45323H8.004C8.22578 9.45323 8.43848 9.38899 8.5953 9.27465C8.75212 9.16031 8.84022 9.00523 8.84022 8.84353V7.62412C8.84022 7.46242 8.75212 7.30734 8.5953 7.193C8.43848 7.07866 8.22578 7.01442 8.004 7.01442H4.65913ZM4.65913 10.6726C4.43735 10.6726 4.22465 10.7369 4.06783 10.8512C3.91101 10.9656 3.82291 11.1206 3.82291 11.2823C3.82291 11.444 3.91101 11.5991 4.06783 11.7135C4.22465 11.8278 4.43735 11.892 4.65913 11.892H13.0213C13.2431 11.892 13.4558 11.8278 13.6126 11.7135C13.7694 11.5991 13.8575 11.444 13.8575 11.2823C13.8575 11.1206 13.7694 10.9656 13.6126 10.8512C13.4558 10.7369 13.2431 10.6726 13.0213 10.6726H4.65913ZM4.65913 13.1114C4.43735 13.1114 4.22465 13.1757 4.06783 13.29C3.91101 13.4044 3.82291 13.5594 3.82291 13.7212C3.82291 13.8829 3.91101 14.0379 4.06783 14.1523C4.22465 14.2666 4.43735 14.3309 4.65913 14.3309H6.33156C6.55334 14.3309 6.76604 14.2666 6.92286 14.1523C7.07968 14.0379 7.16778 13.8829 7.16778 13.7212C7.16778 13.5594 7.07968 13.4044 6.92286 13.29C6.76604 13.1757 6.55334 13.1114 6.33156 13.1114H4.65913ZM9.67644 13.1114C9.45466 13.1114 9.24197 13.1757 9.08515 13.29C8.92833 13.4044 8.84022 13.5594 8.84022 13.7212C8.84022 13.8829 8.92833 14.0379 9.08515 14.1523C9.24197 14.2666 9.45466 14.3309 9.67644 14.3309H11.3489C11.5707 14.3309 11.7834 14.2666 11.9402 14.1523C12.097 14.0379 12.1851 13.8829 12.1851 13.7212C12.1851 13.5594 12.097 13.4044 11.9402 13.29C11.7834 13.1757 11.5707 13.1114 11.3489 13.1114H9.67644ZM14.6938 13.1114C14.472 13.1114 14.2593 13.1757 14.1025 13.29C13.9456 13.4044 13.8575 13.5594 13.8575 13.7212C13.8575 13.8829 13.9456 14.0379 14.1025 14.1523C14.2593 14.2666 14.472 14.3309 14.6938 14.3309H16.3662C16.588 14.3309 16.8007 14.2666 16.9575 14.1523C17.1143 14.0379 17.2024 13.8829 17.2024 13.7212C17.2024 13.5594 17.1143 13.4044 16.9575 13.29C16.8007 13.1757 16.588 13.1114 16.3662 13.1114H14.6938ZM19.7111 13.1114C19.4893 13.1114 19.2766 13.1757 19.1198 13.29C18.963 13.4044 18.8749 13.5594 18.8749 13.7212C18.8749 13.8829 18.963 14.0379 19.1198 14.1523C19.2766 14.2666 19.4893 14.3309 19.7111 14.3309H21.3835C21.6053 14.3309 21.818 14.2666 21.9748 14.1523C22.1316 14.0379 22.2197 13.8829 22.2197 13.7212C22.2197 13.5594 22.1316 13.4044 21.9748 13.29C21.818 13.1757 21.6053 13.1114 21.3835 13.1114H19.7111Z" fill="white"/>
</g>
<defs>
<clipPath id="clip0_91_156">
<rect width="26.759" height="19.5105" fill="white" transform="translate(0.478027 0.91748)"/>
</clipPath>
</defs>
</svg>
