<svg width="24" height="24" viewBox="0 0 24 24" fill="none" xmlns="http://www.w3.org/2000/svg">
<g clip-path="url(#clip0_205_304)">
<path d="M20.45 20.4498H16.89V14.8798C16.89 13.5498 16.89 11.8798 15.04 11.8798C13.19 11.8798 12.91 13.3198 12.91 14.8098V20.4798H9.35V8.99977H12.76V10.5598H12.81C13.1525 9.97599 13.6466 9.49578 14.2399 9.17007C14.8332 8.84437 15.5036 8.68531 16.18 8.70977C19.78 8.70977 20.45 11.0798 20.45 14.1698V20.4498V20.4498ZM5.34 7.42977C4.93257 7.42977 4.53429 7.30895 4.19553 7.0826C3.85676 6.85624 3.59272 6.53451 3.43681 6.1581C3.28089 5.78168 3.2401 5.36749 3.31958 4.96788C3.39907 4.56828 3.59526 4.20123 3.88336 3.91313C4.17146 3.62503 4.53851 3.42884 4.93811 3.34935C5.33772 3.26987 5.75191 3.31066 6.12833 3.46658C6.50474 3.6225 6.82647 3.88653 7.05283 4.2253C7.27918 4.56406 7.4 4.96234 7.4 5.36977C7.4 5.91612 7.18296 6.44009 6.79664 6.82641C6.41031 7.21274 5.88635 7.42977 5.34 7.42977V7.42977ZM7.12 20.4298H3.56V8.99977H7.12V20.4298ZM22.23 -0.000229188H1.77C1.54018 -0.00287068 1.3121 0.0397834 1.09876 0.125297C0.885433 0.210811 0.691035 0.33751 0.526672 0.498158C0.362309 0.658806 0.231201 0.850258 0.140834 1.06158C0.0504671 1.2729 0.00261148 1.49995 0 1.72977L0 22.2698C0.00261148 22.4996 0.0504671 22.7266 0.140834 22.938C0.231201 23.1493 0.362309 23.3407 0.526672 23.5014C0.691035 23.662 0.885433 23.7887 1.09876 23.8742C1.3121 23.9598 1.54018 24.0024 1.77 23.9998H22.22C22.4507 24.0037 22.6798 23.9621 22.8943 23.8771C23.1088 23.7922 23.3044 23.6657 23.4698 23.505C23.6352 23.3442 23.7672 23.1523 23.8582 22.9403C23.9492 22.7283 23.9974 22.5004 24 22.2698V1.72977C23.9974 1.4991 23.9492 1.27122 23.8582 1.05924C23.7672 0.847255 23.6352 0.655355 23.4698 0.494575C23.3044 0.333795 23.1088 0.207309 22.8943 0.122391C22.6798 0.0374741 22.4507 -0.00419848 22.22 -0.000229188H22.23Z" fill="white"/>
</g>
<defs>
<clipPath id="clip0_205_304">
<rect width="24" height="24" fill="white"/>
</clipPath>
</defs>
</svg>
