<svg width="36" height="19" viewBox="0 0 36 19" fill="none" xmlns="http://www.w3.org/2000/svg">
<g clip-path="url(#clip0_111_74)">
<path fill-rule="evenodd" clip-rule="evenodd" d="M0.702148 5.36665C0.702148 4.77941 1.16471 4.21623 1.98807 3.80099C2.81143 3.38575 3.92815 3.15247 5.09256 3.15247H31.435C32.5995 3.15247 33.7162 3.38575 34.5395 3.80099C35.3629 4.21623 35.8255 4.77941 35.8255 5.36665V14.2234C35.8255 14.8106 35.3629 15.3738 34.5395 15.7891C33.7162 16.2043 32.5995 16.4376 31.435 16.4376H5.09256C3.92815 16.4376 2.81143 16.2043 1.98807 15.7891C1.16471 15.3738 0.702148 14.8106 0.702148 14.2234V5.36665ZM6.19017 6.47374C5.89906 6.47374 5.61988 6.53206 5.41404 6.63587C5.2082 6.73968 5.09256 6.88048 5.09256 7.02729V8.13438C5.09256 8.28119 5.2082 8.42199 5.41404 8.5258C5.61988 8.62961 5.89906 8.68793 6.19017 8.68793H10.5806C10.8717 8.68793 11.1509 8.62961 11.3567 8.5258C11.5625 8.42199 11.6782 8.28119 11.6782 8.13438V7.02729C11.6782 6.88048 11.5625 6.73968 11.3567 6.63587C11.1509 6.53206 10.8717 6.47374 10.5806 6.47374H6.19017ZM6.19017 9.79502C5.89906 9.79502 5.61988 9.85334 5.41404 9.95715C5.2082 10.061 5.09256 10.2018 5.09256 10.3486C5.09256 10.4954 5.2082 10.6362 5.41404 10.74C5.61988 10.8438 5.89906 10.9021 6.19017 10.9021H17.1662C17.4573 10.9021 17.7365 10.8438 17.9423 10.74C18.1482 10.6362 18.2638 10.4954 18.2638 10.3486C18.2638 10.2018 18.1482 10.061 17.9423 9.95715C17.7365 9.85334 17.4573 9.79502 17.1662 9.79502H6.19017ZM6.19017 12.0092C5.89906 12.0092 5.61988 12.0675 5.41404 12.1713C5.2082 12.2751 5.09256 12.4159 5.09256 12.5627C5.09256 12.7096 5.2082 12.8504 5.41404 12.9542C5.61988 13.058 5.89906 13.1163 6.19017 13.1163H8.38537C8.67647 13.1163 8.95565 13.058 9.16149 12.9542C9.36733 12.8504 9.48298 12.7096 9.48298 12.5627C9.48298 12.4159 9.36733 12.2751 9.16149 12.1713C8.95565 12.0675 8.67647 12.0092 8.38537 12.0092H6.19017ZM12.7758 12.0092C12.4847 12.0092 12.2055 12.0675 11.9997 12.1713C11.7938 12.2751 11.6782 12.4159 11.6782 12.5627C11.6782 12.7096 11.7938 12.8504 11.9997 12.9542C12.2055 13.058 12.4847 13.1163 12.7758 13.1163H14.971C15.2621 13.1163 15.5413 13.058 15.7471 12.9542C15.953 12.8504 16.0686 12.7096 16.0686 12.5627C16.0686 12.4159 15.953 12.2751 15.7471 12.1713C15.5413 12.0675 15.2621 12.0092 14.971 12.0092H12.7758ZM19.3614 12.0092C19.0703 12.0092 18.7911 12.0675 18.5853 12.1713C18.3794 12.2751 18.2638 12.4159 18.2638 12.5627C18.2638 12.7096 18.3794 12.8504 18.5853 12.9542C18.7911 13.058 19.0703 13.1163 19.3614 13.1163H21.5566C21.8477 13.1163 22.1269 13.058 22.3327 12.9542C22.5386 12.8504 22.6542 12.7096 22.6542 12.5627C22.6542 12.4159 22.5386 12.2751 22.3327 12.1713C22.1269 12.0675 21.8477 12.0092 21.5566 12.0092H19.3614ZM25.947 12.0092C25.6559 12.0092 25.3767 12.0675 25.1709 12.1713C24.9651 12.2751 24.8494 12.4159 24.8494 12.5627C24.8494 12.7096 24.9651 12.8504 25.1709 12.9542C25.3767 13.058 25.6559 13.1163 25.947 13.1163H28.1422C28.4333 13.1163 28.7125 13.058 28.9184 12.9542C29.1242 12.8504 29.2398 12.7096 29.2398 12.5627C29.2398 12.4159 29.1242 12.2751 28.9184 12.1713C28.7125 12.0675 28.4333 12.0092 28.1422 12.0092H25.947Z" fill="white"/>
</g>
<defs>
<clipPath id="clip0_111_74">
<rect width="35.1233" height="17.7135" fill="white" transform="translate(0.702148 0.938232)"/>
</clipPath>
</defs>
</svg>
