<svg width="37" height="20" viewBox="0 0 37 20" fill="none" xmlns="http://www.w3.org/2000/svg">
<g clip-path="url(#clip0_111_29)">
<path fill-rule="evenodd" clip-rule="evenodd" d="M0.839844 5.2543C0.839844 4.60323 1.30943 3.97882 2.14529 3.51845C2.98115 3.05807 4.11482 2.79944 5.2969 2.79944H32.0393C33.2213 2.79944 34.355 3.05807 35.1909 3.51845C36.0267 3.97882 36.4963 4.60323 36.4963 5.2543V15.0737C36.4963 15.7248 36.0267 16.3492 35.1909 16.8096C34.355 17.2699 33.2213 17.5286 32.0393 17.5286H5.2969C4.11482 17.5286 2.98115 17.2699 2.14529 16.8096C1.30943 16.3492 0.839844 15.7248 0.839844 15.0737V5.2543ZM6.41117 6.48172C6.11565 6.48172 5.83223 6.54638 5.62326 6.66148C5.4143 6.77657 5.2969 6.93267 5.2969 7.09544V8.32287C5.2969 8.48563 5.4143 8.64173 5.62326 8.75683C5.83223 8.87192 6.11565 8.93658 6.41117 8.93658H10.8682C11.1637 8.93658 11.4472 8.87192 11.6561 8.75683C11.8651 8.64173 11.9825 8.48563 11.9825 8.32287V7.09544C11.9825 6.93267 11.8651 6.77657 11.6561 6.66148C11.4472 6.54638 11.1637 6.48172 10.8682 6.48172H6.41117ZM6.41117 10.164C6.11565 10.164 5.83223 10.2287 5.62326 10.3438C5.4143 10.4589 5.2969 10.615 5.2969 10.7777C5.2969 10.9405 5.4143 11.0966 5.62326 11.2117C5.83223 11.3268 6.11565 11.3914 6.41117 11.3914H17.5538C17.8493 11.3914 18.1328 11.3268 18.3417 11.2117C18.5507 11.0966 18.6681 10.9405 18.6681 10.7777C18.6681 10.615 18.5507 10.4589 18.3417 10.3438C18.1328 10.2287 17.8493 10.164 17.5538 10.164H6.41117ZM6.41117 12.6189C6.11565 12.6189 5.83223 12.6835 5.62326 12.7986C5.4143 12.9137 5.2969 13.0698 5.2969 13.2326C5.2969 13.3953 5.4143 13.5514 5.62326 13.6665C5.83223 13.7816 6.11565 13.8463 6.41117 13.8463H8.6397C8.93522 13.8463 9.21864 13.7816 9.4276 13.6665C9.63657 13.5514 9.75396 13.3953 9.75396 13.2326C9.75396 13.0698 9.63657 12.9137 9.4276 12.7986C9.21864 12.6835 8.93522 12.6189 8.6397 12.6189H6.41117ZM13.0968 12.6189C12.8012 12.6189 12.5178 12.6835 12.3089 12.7986C12.0999 12.9137 11.9825 13.0698 11.9825 13.2326C11.9825 13.3953 12.0999 13.5514 12.3089 13.6665C12.5178 13.7816 12.8012 13.8463 13.0968 13.8463H15.3253C15.6208 13.8463 15.9042 13.7816 16.1132 13.6665C16.3222 13.5514 16.4396 13.3953 16.4396 13.2326C16.4396 13.0698 16.3222 12.9137 16.1132 12.7986C15.9042 12.6835 15.6208 12.6189 15.3253 12.6189H13.0968ZM19.7823 12.6189C19.4868 12.6189 19.2034 12.6835 18.9944 12.7986C18.7855 12.9137 18.6681 13.0698 18.6681 13.2326C18.6681 13.3953 18.7855 13.5514 18.9944 13.6665C19.2034 13.7816 19.4868 13.8463 19.7823 13.8463H22.0109C22.3064 13.8463 22.5898 13.7816 22.7988 13.6665C23.0077 13.5514 23.1251 13.3953 23.1251 13.2326C23.1251 13.0698 23.0077 12.9137 22.7988 12.7986C22.5898 12.6835 22.3064 12.6189 22.0109 12.6189H19.7823ZM26.4679 12.6189C26.1724 12.6189 25.889 12.6835 25.68 12.7986C25.4711 12.9137 25.3537 13.0698 25.3537 13.2326C25.3537 13.3953 25.4711 13.5514 25.68 13.6665C25.889 13.7816 26.1724 13.8463 26.4679 13.8463H28.6965C28.992 13.8463 29.2754 13.7816 29.4844 13.6665C29.6933 13.5514 29.8107 13.3953 29.8107 13.2326C29.8107 13.0698 29.6933 12.9137 29.4844 12.7986C29.2754 12.6835 28.992 12.6189 28.6965 12.6189H26.4679Z" fill="white"/>
</g>
<defs>
<clipPath id="clip0_111_29">
<rect width="35.6565" height="19.6389" fill="white" transform="translate(0.839844 0.344604)"/>
</clipPath>
</defs>
</svg>
