<svg width="28" height="21" viewBox="0 0 28 21" fill="none" xmlns="http://www.w3.org/2000/svg">
<g clip-path="url(#clip0_91_186)">
<path fill-rule="evenodd" clip-rule="evenodd" d="M2.47803 5.79501C2.47803 5.1482 2.83043 4.52788 3.45772 4.07051C4.08501 3.61315 4.93579 3.3562 5.82291 3.3562H25.8922C26.7793 3.3562 27.6301 3.61315 28.2574 4.07051C28.8846 4.52788 29.2371 5.1482 29.2371 5.79501V15.5503C29.2371 16.1971 28.8846 16.8174 28.2574 17.2748C27.6301 17.7321 26.7793 17.9891 25.8922 17.9891H5.82291C4.93579 17.9891 4.08501 17.7321 3.45772 17.2748C2.83043 16.8174 2.47803 16.1971 2.47803 15.5503V5.79501ZM6.65913 7.01442C6.43735 7.01442 6.22465 7.07866 6.06783 7.193C5.91101 7.30734 5.82291 7.46242 5.82291 7.62412V8.84353C5.82291 9.00523 5.91101 9.16031 6.06783 9.27465C6.22465 9.38899 6.43735 9.45323 6.65913 9.45323H10.004C10.2258 9.45323 10.4385 9.38899 10.5953 9.27465C10.7521 9.16031 10.8402 9.00523 10.8402 8.84353V7.62412C10.8402 7.46242 10.7521 7.30734 10.5953 7.193C10.4385 7.07866 10.2258 7.01442 10.004 7.01442H6.65913ZM6.65913 10.6726C6.43735 10.6726 6.22465 10.7369 6.06783 10.8512C5.91101 10.9656 5.82291 11.1206 5.82291 11.2823C5.82291 11.444 5.91101 11.5991 6.06783 11.7135C6.22465 11.8278 6.43735 11.892 6.65913 11.892H15.0213C15.2431 11.892 15.4558 11.8278 15.6126 11.7135C15.7694 11.5991 15.8575 11.444 15.8575 11.2823C15.8575 11.1206 15.7694 10.9656 15.6126 10.8512C15.4558 10.7369 15.2431 10.6726 15.0213 10.6726H6.65913ZM6.65913 13.1114C6.43735 13.1114 6.22465 13.1757 6.06783 13.29C5.91101 13.4044 5.82291 13.5594 5.82291 13.7212C5.82291 13.8829 5.91101 14.0379 6.06783 14.1523C6.22465 14.2666 6.43735 14.3309 6.65913 14.3309H8.33156C8.55334 14.3309 8.76604 14.2666 8.92286 14.1523C9.07968 14.0379 9.16778 13.8829 9.16778 13.7212C9.16778 13.5594 9.07968 13.4044 8.92286 13.29C8.76604 13.1757 8.55334 13.1114 8.33156 13.1114H6.65913ZM11.6764 13.1114C11.4547 13.1114 11.242 13.1757 11.0851 13.29C10.9283 13.4044 10.8402 13.5594 10.8402 13.7212C10.8402 13.8829 10.9283 14.0379 11.0851 14.1523C11.242 14.2666 11.4547 14.3309 11.6764 14.3309H13.3489C13.5707 14.3309 13.7834 14.2666 13.9402 14.1523C14.097 14.0379 14.1851 13.8829 14.1851 13.7212C14.1851 13.5594 14.097 13.4044 13.9402 13.29C13.7834 13.1757 13.5707 13.1114 13.3489 13.1114H11.6764ZM16.6938 13.1114C16.472 13.1114 16.2593 13.1757 16.1025 13.29C15.9456 13.4044 15.8575 13.5594 15.8575 13.7212C15.8575 13.8829 15.9456 14.0379 16.1025 14.1523C16.2593 14.2666 16.472 14.3309 16.6938 14.3309H18.3662C18.588 14.3309 18.8007 14.2666 18.9575 14.1523C19.1143 14.0379 19.2024 13.8829 19.2024 13.7212C19.2024 13.5594 19.1143 13.4044 18.9575 13.29C18.8007 13.1757 18.588 13.1114 18.3662 13.1114H16.6938ZM21.7111 13.1114C21.4893 13.1114 21.2766 13.1757 21.1198 13.29C20.963 13.4044 20.8749 13.5594 20.8749 13.7212C20.8749 13.8829 20.963 14.0379 21.1198 14.1523C21.2766 14.2666 21.4893 14.3309 21.7111 14.3309H23.3835C23.6053 14.3309 23.818 14.2666 23.9748 14.1523C24.1316 14.0379 24.2197 13.8829 24.2197 13.7212C24.2197 13.5594 24.1316 13.4044 23.9748 13.29C23.818 13.1757 23.6053 13.1114 23.3835 13.1114H21.7111Z" fill="white"/>
</g>
<defs>
<clipPath id="clip0_91_186">
<rect width="26.759" height="19.5105" fill="white" transform="translate(0.478027 0.91748)"/>
</clipPath>
</defs>
</svg>
