<svg width="24" height="24" viewBox="0 0 24 24" fill="none" xmlns="http://www.w3.org/2000/svg">
<g clip-path="url(#clip0_205_125)">
<path d="M11.9999 0C9.20948 0.0197566 6.51274 1.00652 4.37144 2.79134C2.23013 4.57615 0.777439 7.048 0.262114 9.78362C-0.253212 12.5192 0.200878 15.3485 1.54663 17.7869C2.89239 20.2253 5.04609 22.1212 7.63898 23.15C7.46408 22.01 7.46408 20.85 7.63898 19.71L9.04249 13.71C8.82068 13.1675 8.71155 12.5858 8.72169 12C8.72169 10.34 9.7242 9.09 10.8971 9.09C11.1129 9.08704 11.3268 9.13013 11.5245 9.21638C11.7222 9.30263 11.8992 9.43004 12.0435 9.59009C12.1878 9.75013 12.2961 9.9391 12.3612 10.1443C12.4263 10.3495 12.4467 10.5663 12.4209 10.78C12.2037 12.1398 11.8683 13.4782 11.4184 14.78C11.3506 15.0439 11.3459 15.32 11.4046 15.5861C11.4633 15.8521 11.5838 16.1007 11.7564 16.3119C11.9291 16.523 12.149 16.6907 12.3985 16.8015C12.648 16.9124 12.9201 16.9632 13.1929 16.95C15.3282 16.95 16.9723 14.7 16.9723 11.46C16.9929 10.8038 16.8763 10.1505 16.6299 9.54167C16.3836 8.93285 16.0128 8.38187 15.5413 7.92378C15.0698 7.46569 14.5079 7.11053 13.8913 6.8809C13.2747 6.65127 12.6169 6.5522 11.9598 6.59C11.2578 6.56023 10.5571 6.67286 9.90001 6.92107C9.24295 7.16929 8.64321 7.54793 8.13711 8.03407C7.631 8.5202 7.22906 9.10373 6.95562 9.74933C6.68217 10.3949 6.5429 11.0892 6.54625 11.79C6.54654 12.7728 6.85501 13.7308 7.42846 14.53C7.47224 14.5758 7.50353 14.632 7.51932 14.6933C7.53512 14.7545 7.5349 14.8188 7.51868 14.88L7.18786 16.2C7.1277 16.42 7.0074 16.47 6.77683 16.36C5.28309 15.67 4.34074 13.49 4.34074 11.72C4.34074 7.94 7.09763 4.47 12.2806 4.47C16.451 4.47 19.6891 7.47 19.6891 11.39C19.6891 15.52 17.0826 18.85 13.4435 18.85C12.9039 18.8658 12.3688 18.748 11.886 18.5072C11.4032 18.2664 10.9876 17.9101 10.6766 17.47L9.9247 20.32C9.56562 21.4301 9.0635 22.4889 8.43096 23.47C9.58759 23.8226 10.7905 24.0012 11.9999 24C15.1905 24 18.2504 22.7357 20.5064 20.4853C22.7625 18.2348 24.03 15.1826 24.03 12C24.03 8.8174 22.7625 5.76516 20.5064 3.51472C18.2504 1.26428 15.1905 0 11.9999 0V0Z" fill="white"/>
</g>
<defs>
<clipPath id="clip0_205_125">
<rect width="24" height="24" fill="white"/>
</clipPath>
</defs>
</svg>
