<svg width="24" height="24" viewBox="0 0 24 24" fill="none" xmlns="http://www.w3.org/2000/svg">
<g clip-path="url(#clip0_185_46)">
<path d="M12 0C9.2096 0.0197566 6.51287 1.00652 4.37156 2.79134C2.23025 4.57615 0.777561 7.048 0.262236 9.78362C-0.25309 12.5192 0.201 15.3485 1.54675 17.7869C2.89251 20.2253 5.04622 22.1212 7.63911 23.15C7.4642 22.01 7.4642 20.85 7.63911 19.71L9.04261 13.71C8.82081 13.1675 8.71167 12.5858 8.72181 12C8.72181 10.34 9.72432 9.09 10.8972 9.09C11.113 9.08704 11.3269 9.13013 11.5246 9.21638C11.7224 9.30263 11.8993 9.43004 12.0436 9.59009C12.1879 9.75013 12.2962 9.9391 12.3613 10.1443C12.4264 10.3495 12.4468 10.5663 12.4211 10.78C12.2038 12.1398 11.8684 13.4782 11.4186 14.78C11.3507 15.0439 11.346 15.32 11.4047 15.5861C11.4634 15.8521 11.5839 16.1007 11.7566 16.3119C11.9292 16.523 12.1491 16.6907 12.3986 16.8015C12.6481 16.9124 12.9202 16.9632 13.193 16.95C15.3283 16.95 16.9724 14.7 16.9724 11.46C16.993 10.8038 16.8764 10.1505 16.63 9.54167C16.3837 8.93285 16.0129 8.38187 15.5414 7.92378C15.07 7.46569 14.508 7.11053 13.8914 6.8809C13.2748 6.65127 12.617 6.5522 11.9599 6.59C11.2579 6.56023 10.5572 6.67286 9.90014 6.92107C9.24307 7.16929 8.64333 7.54793 8.13723 8.03407C7.63112 8.5202 7.22918 9.10373 6.95574 9.74933C6.68229 10.3949 6.54303 11.0892 6.54637 11.79C6.54666 12.7728 6.85514 13.7308 7.42858 14.53C7.47236 14.5758 7.50365 14.632 7.51944 14.6933C7.53524 14.7545 7.53502 14.8188 7.5188 14.88L7.18798 16.2C7.12783 16.42 7.00753 16.47 6.77695 16.36C5.28322 15.67 4.34086 13.49 4.34086 11.72C4.34086 7.94 7.09775 4.47 12.2807 4.47C16.4511 4.47 19.6892 7.47 19.6892 11.39C19.6892 15.52 17.0827 18.85 13.4436 18.85C12.904 18.8658 12.3689 18.748 11.8861 18.5072C11.4033 18.2664 10.9878 17.9101 10.6767 17.47L9.92482 20.32C9.56574 21.4301 9.06363 22.4889 8.43108 23.47C9.58772 23.8226 10.7906 24.0012 12 24C15.1906 24 18.2505 22.7357 20.5066 20.4853C22.7626 18.2348 24.0301 15.1826 24.0301 12C24.0301 8.8174 22.7626 5.76516 20.5066 3.51472C18.2505 1.26428 15.1906 0 12 0V0Z" fill="white"/>
</g>
<defs>
<clipPath id="clip0_185_46">
<rect width="24" height="24" fill="white"/>
</clipPath>
</defs>
</svg>
