<svg width="165" height="163" viewBox="0 0 165 163" fill="none" xmlns="http://www.w3.org/2000/svg">
<g opacity="0.7" clip-path="url(#clip0_38_407)">
<path d="M119.642 12.9063C119.642 5.79376 125.478 0.0283203 132.678 0.0283203H31.21C25.4847 0.0283203 20.8433 4.61349 20.8433 10.2694V126.89H119.641V32.3441V25.7845V12.9063H119.642Z" fill="#FFE07D"/>
<path d="M124.808 0.0283203C117.608 0.0283203 111.772 5.79408 111.772 12.9063V63.9759C111.772 66.9807 109.774 69.6538 106.846 70.4693C85.2586 76.4827 69.4355 96.0791 69.4355 119.329C69.4355 125.441 70.5298 131.301 72.5342 136.728H111.772H119.642V68.5805V32.3438V12.9063C119.642 5.79376 125.478 0.0283203 132.678 0.0283203H124.808V0.0283203Z" fill="#FFD064"/>
<path d="M103.886 22.2393H38.5745C37.1993 22.2393 36.0845 21.1383 36.0845 19.7794C36.0845 18.4206 37.199 17.3196 38.5745 17.3196H103.886C105.261 17.3196 106.376 18.4206 106.376 19.7794C106.376 21.1383 105.261 22.2393 103.886 22.2393Z" fill="#2B4D66"/>
<path d="M103.886 46.7671H38.5745C37.1993 46.7671 36.0845 45.6661 36.0845 44.3073C36.0845 42.9484 37.199 41.8474 38.5745 41.8474H103.886C105.261 41.8474 106.376 42.9484 106.376 44.3073C106.376 45.6661 105.261 46.7671 103.886 46.7671Z" fill="#2B4D66"/>
<path d="M103.886 71.2957H38.5745C37.1993 71.2957 36.0845 70.1947 36.0845 68.8358C36.0845 67.4773 37.199 66.376 38.5745 66.376H103.886C105.261 66.376 106.376 67.477 106.376 68.8358C106.376 70.1947 105.261 71.2957 103.886 71.2957Z" fill="#2B4D66"/>
<path d="M103.886 95.8238H38.5745C37.1993 95.8238 36.0845 94.7227 36.0845 93.3639C36.0845 92.0051 37.199 90.9041 38.5745 90.9041H103.886C105.261 90.9041 106.376 92.0051 106.376 93.3639C106.376 94.7227 105.261 95.8238 103.886 95.8238Z" fill="#2B4D66"/>
<path d="M107.731 136.729H18.4307C8.25179 136.729 0 128.577 0 118.521V115.297C0 114.445 0.699517 113.754 1.56207 113.754H107.731V136.729Z" fill="#EAB14D"/>
<path d="M69.4355 119.329C69.4355 125.442 70.5298 131.302 72.5342 136.729H107.731V113.754H69.7455C69.5428 115.585 69.4355 117.445 69.4355 119.329Z" fill="#E49542"/>
<path d="M120.822 162.972C145.221 162.972 165 143.432 165 119.329C165 95.2264 145.221 75.687 120.822 75.687C96.4236 75.687 76.6445 95.2264 76.6445 119.329C76.6445 143.432 96.4236 162.972 120.822 162.972Z" fill="#DD636E"/>
<path d="M120.822 75.687C119.651 75.687 118.491 75.7328 117.342 75.8213C140.114 77.5742 158.04 96.3835 158.04 119.329C158.04 142.275 140.114 161.085 117.342 162.837C118.491 162.926 119.651 162.972 120.822 162.972C145.221 162.972 165 143.432 165 119.329C165 95.2264 145.221 75.687 120.822 75.687V75.687Z" fill="#DA4A54"/>
<path d="M120.822 151.882C139.021 151.882 153.774 137.308 153.774 119.329C153.774 101.351 139.021 86.7771 120.822 86.7771C102.624 86.7771 87.8706 101.351 87.8706 119.329C87.8706 137.308 102.624 151.882 120.822 151.882Z" fill="#F4FBFF"/>
<path d="M120.822 86.7771C119.295 86.7771 117.793 86.8821 116.322 87.0804C132.391 89.2487 144.773 102.859 144.773 119.329C144.773 135.799 132.391 149.41 116.322 151.578C117.793 151.777 119.295 151.882 120.822 151.882C139.021 151.882 153.774 137.308 153.774 119.329C153.774 101.351 139.021 86.7771 120.822 86.7771V86.7771Z" fill="#DAF1F4"/>
<path d="M120.822 99.2548C119.447 99.2548 118.332 98.1537 118.332 96.7949V95.6681C118.332 94.3096 119.447 93.2083 120.822 93.2083C122.197 93.2083 123.312 94.3093 123.312 95.6681V96.7949C123.312 98.1537 122.198 99.2548 120.822 99.2548Z" fill="#365E7D"/>
<path d="M136.951 105.855C136.314 105.855 135.677 105.614 135.19 105.134C134.218 104.173 134.218 102.616 135.191 101.655L135.998 100.859C136.97 99.8989 138.547 99.8986 139.519 100.86C140.491 101.821 140.491 103.378 139.518 104.338L138.711 105.135C138.226 105.615 137.589 105.855 136.951 105.855Z" fill="#365E7D"/>
<path d="M144.773 121.789H143.632C142.257 121.789 141.142 120.688 141.142 119.329C141.142 117.97 142.257 116.869 143.632 116.869H144.773C146.148 116.869 147.263 117.97 147.263 119.329C147.263 120.688 146.148 121.789 144.773 121.789Z" fill="#365E7D"/>
<path d="M98.011 121.789H96.8704C95.4952 121.789 94.3804 120.688 94.3804 119.329C94.3804 117.97 95.4949 116.869 96.8704 116.869H98.011C99.3862 116.869 100.501 117.97 100.501 119.329C100.501 120.688 99.3865 121.789 98.011 121.789Z" fill="#365E7D"/>
<path d="M137.758 138.52C137.121 138.52 136.484 138.28 135.998 137.8L135.192 137.003C134.219 136.043 134.219 134.485 135.191 133.525C136.163 132.563 137.739 132.563 138.712 133.524L139.518 134.32C140.491 135.281 140.491 136.838 139.519 137.799C139.033 138.279 138.396 138.52 137.758 138.52Z" fill="#365E7D"/>
<path d="M120.822 145.45C119.447 145.45 118.332 144.349 118.332 142.99V141.863C118.332 140.505 119.447 139.403 120.822 139.403C122.197 139.403 123.312 140.504 123.312 141.863V142.99C123.312 144.349 122.198 145.45 120.822 145.45Z" fill="#365E7D"/>
<path d="M103.886 138.52C103.249 138.52 102.611 138.28 102.125 137.8C101.152 136.839 101.152 135.281 102.125 134.321L102.931 133.524C103.904 132.564 105.48 132.564 106.452 133.524C107.425 134.485 107.425 136.043 106.452 137.003L105.646 137.8C105.16 138.28 104.523 138.52 103.886 138.52Z" fill="#365E7D"/>
<path d="M104.692 105.855C104.055 105.855 103.418 105.615 102.931 105.135L102.125 104.338C101.152 103.377 101.152 101.82 102.125 100.859C103.098 99.8991 104.674 99.8991 105.646 100.859L106.452 101.656C107.425 102.617 107.425 104.174 106.452 105.135C105.967 105.615 105.329 105.855 104.692 105.855Z" fill="#365E7D"/>
<path d="M127.609 121.789H120.822C119.447 121.789 118.332 120.688 118.332 119.329V106.347C118.332 104.988 119.447 103.887 120.822 103.887C122.197 103.887 123.312 104.988 123.312 106.347V116.869H127.609C128.984 116.869 130.099 117.97 130.099 119.329C130.099 120.688 128.984 121.789 127.609 121.789Z" fill="#2B4D66"/>
<path d="M143.393 32.3438H119.642V12.9063C119.642 5.79376 125.478 0.0283203 132.678 0.0283203C139.877 0.0283203 145.714 5.79408 145.714 12.9063V30.0514C145.714 31.3176 144.675 32.3438 143.393 32.3438V32.3438Z" fill="#EAB14D"/>
<path d="M136.925 0.731136C135.593 0.277871 134.166 0.0283203 132.678 0.0283203C125.479 0.0283203 119.642 5.79408 119.642 12.9063V32.3438H128.136V12.9063C128.135 7.26337 131.811 2.47162 136.925 0.731136V0.731136Z" fill="#E49542"/>
</g>
<defs>
<clipPath id="clip0_38_407">
<rect width="165" height="163" fill="white"/>
</clipPath>
</defs>
</svg>
