<svg width="40" height="40" viewBox="0 0 40 40" fill="none" xmlns="http://www.w3.org/2000/svg">
<g clip-path="url(#clip0_51_197)">
<path d="M10.2932 29.0735C4.61753 29.0735 0 33.691 0 39.3667V39.3898C0 39.7136 0.262472 39.9762 0.586398 39.9762H20C20.3239 39.9762 20.5864 39.7136 20.5864 39.3898V39.3667C20.5864 33.691 15.9689 29.0735 10.2932 29.0735Z" fill="#8CC7EC"/>
<path d="M10.2932 29.0735C9.83112 29.0735 9.37631 29.1046 8.93018 29.1639C13.9639 29.8328 17.8604 34.153 17.8604 39.3667V39.3898C17.8604 39.7136 17.5979 39.9762 17.274 39.9762H20C20.324 39.9762 20.5864 39.7136 20.5864 39.3898V39.3667C20.5864 33.691 15.9689 29.0735 10.2932 29.0735Z" fill="#66BAEA"/>
<path d="M12.8839 29.4027C11.1993 28.9659 9.38713 28.9659 7.70268 29.4027C7.41738 29.4767 7.2313 29.751 7.26804 30.0435C7.45921 31.5636 8.75984 32.7099 10.2932 32.7099C11.8266 32.7099 13.1273 31.5636 13.3184 30.0435C13.3554 29.751 13.1693 29.4767 12.8839 29.4027Z" fill="#E09C77"/>
<path d="M19.1007 15.3027C18.2507 13.8978 16.8384 12.9947 15.1241 12.7598C13.9048 12.5927 12.9076 12.9181 12.3485 13.1734C11.533 12.2026 10.6049 11.6815 8.68001 11.6815C6.46921 11.6815 3.3355 12.8285 1.67936 15.3467C-0.246373 18.2749 0.580761 21.7434 1.61376 24.1375C1.70946 24.3591 2.15254 24.4917 2.15254 24.4917L18.2352 24.4293C18.2352 24.4293 18.8759 24.3815 18.9859 24.0769C20.6612 19.4375 19.973 16.7447 19.1007 15.3027Z" fill="#6E563D"/>
<path d="M19.1005 15.3027C18.2505 13.8978 16.8382 12.9947 15.1238 12.7598C14.3453 12.6532 13.6582 12.7475 13.1169 12.8959C14.5188 13.2546 15.6702 14.0916 16.403 15.3028C17.2753 16.7448 17.9635 19.4376 16.2881 24.077C16.1782 24.3816 15.5374 24.4293 15.5374 24.4293H18.235C18.235 24.4293 18.8757 24.3816 18.9857 24.077C20.661 19.4375 19.9728 16.7447 19.1005 15.3027Z" fill="#604B35"/>
<path d="M17.3486 22.8478C17.1266 22.8478 16.9063 22.8824 16.6941 22.9507C16.4652 23.0242 16.3045 23.23 16.2884 23.4698C16.2348 24.2712 16.0259 25.0397 15.6673 25.7542C15.5594 25.9691 15.5937 26.2281 15.7537 26.4075C16.1598 26.863 16.7412 27.1241 17.3486 27.1241C18.5275 27.1241 19.4867 26.1649 19.4867 24.9859C19.4867 23.807 18.5276 22.8478 17.3486 22.8478Z" fill="#E09C77"/>
<path d="M4.91909 25.7543C4.56045 25.0396 4.35146 24.271 4.29798 23.4698C4.28195 23.23 4.1212 23.0242 3.89235 22.9507C3.68007 22.8823 3.45982 22.8478 3.23777 22.8478C2.0588 22.8478 1.09961 23.807 1.09961 24.9859C1.09961 26.1649 2.0588 27.1241 3.23777 27.1241C3.84512 27.1241 4.42644 26.863 4.83254 26.4076C4.99267 26.2282 5.02699 25.9692 4.91909 25.7543Z" fill="#F7B081"/>
<path d="M38.928 18.0282C38.2091 16.153 36.9556 14.5603 35.303 13.4223C33.6494 12.2834 31.7143 11.6815 29.7069 11.6815C27.6996 11.6815 25.7644 12.2835 24.1108 13.4223C22.4582 14.5603 21.2047 16.153 20.4859 18.0282C19.4068 20.8431 19.4031 27.0775 20.9371 30.3408C21.5031 31.545 22.2428 32.3086 23.1354 32.6102C23.4419 32.7141 35.8459 32.6413 36.0905 32.6413C36.1528 32.6413 36.2161 32.6313 36.2783 32.6102C37.171 32.3086 37.9106 31.545 38.4767 30.3408C40.0106 27.0775 40.0069 20.8431 38.928 18.0282Z" fill="#A58260"/>
<path d="M38.9279 18.0282C38.209 16.153 36.9555 14.5603 35.3029 13.4223C33.6493 12.2834 31.7142 11.6815 29.7068 11.6815C29.2478 11.6815 28.7928 11.7145 28.3438 11.7767C29.8582 11.9864 31.3014 12.5439 32.5769 13.4223C34.2295 14.5603 35.483 16.153 36.2018 18.0282C37.2809 20.8431 37.2846 27.0775 35.7506 30.3408C35.1845 31.545 34.4449 32.3086 33.5523 32.6102C33.49 32.6313 33.4267 32.6413 33.3644 32.6413C33.2405 32.6413 29.9962 32.66 26.7849 32.6649C30.5615 32.6725 35.9304 32.6413 36.0905 32.6413C36.1527 32.6413 36.2161 32.6313 36.2783 32.6102C37.1709 32.3086 37.9106 31.545 38.4767 30.3408C40.0105 27.0775 40.0068 20.8431 38.9279 18.0282Z" fill="#8C6B50"/>
<path d="M29.7067 29.0735C24.031 29.0735 19.4136 33.691 19.4136 39.3667V39.3898C19.4136 39.7136 19.676 39.9762 20 39.9762H39.4136C39.7375 39.9762 40 39.7136 40 39.3898V39.3667C40 33.691 35.3824 29.0735 29.7067 29.0735Z" fill="#FD7DAD"/>
<path d="M29.7068 29.0735C29.2447 29.0735 28.7899 29.1046 28.3438 29.1639C33.3775 29.8328 37.2739 34.153 37.2739 39.3667V39.3898C37.2739 39.7136 37.0114 39.9762 36.6875 39.9762H39.4135C39.7375 39.9762 39.9999 39.7136 39.9999 39.3898V39.3667C40 33.691 35.3825 29.0735 29.7068 29.0735Z" fill="#FC63A1"/>
<path d="M26.7424 3.54143C26.4149 1.14752 24.7284 0.162609 23.2592 0.0391526C21.9502 -0.0711685 20.7275 0.420702 19.9998 1.2734C19.2722 0.420624 18.0491 -0.0710903 16.7404 0.0391526C15.2713 0.162609 13.5849 1.14752 13.2573 3.54143C12.5844 8.46061 19.4508 11.8592 19.7434 12.0015C19.8244 12.0408 19.9121 12.0605 19.9998 12.0605C20.0875 12.0605 20.1753 12.0409 20.2562 12.0015C20.5489 11.8592 27.4153 8.46053 26.7424 3.54143Z" fill="#FF3D43"/>
<path d="M26.7425 3.54142C26.4151 1.1475 24.7285 0.16259 23.2594 0.0391338C22.6464 -0.0125475 22.0532 0.0693137 21.52 0.256961C22.6756 0.672756 23.7502 1.68175 24.0046 3.54142C24.5194 7.30445 20.6224 10.1776 18.6311 11.384C19.2429 11.7547 19.6749 11.968 19.7437 12.0015C19.8246 12.0408 19.9123 12.0605 20.0001 12.0605C20.0878 12.0605 20.1755 12.0409 20.2564 12.0015C20.5491 11.8592 27.4155 8.46051 26.7425 3.54142Z" fill="#D72E2E"/>
<path d="M16.9896 21.2988C14.0869 20.7998 12.0779 17.8538 12.0584 17.8248C11.9379 17.6443 11.7284 17.5434 11.5125 17.5653C11.2966 17.5872 11.1112 17.7247 11.0293 17.9256C11.0258 17.934 10.6616 18.7743 9.59246 19.6015C8.16447 20.7063 6.12568 21.2903 3.69651 21.2903C3.37258 21.2903 3.11011 21.5528 3.11011 21.8767V23.063C3.11011 27.0239 6.33256 30.2463 10.2934 30.2463C14.2542 30.2463 17.4767 27.0239 17.4767 23.063V21.8767C17.4766 21.5912 17.271 21.3471 16.9896 21.2988Z" fill="#FFC89F"/>
<path d="M16.9893 21.2987C16.1617 21.1564 15.4072 20.815 14.7504 20.3993V23.063C14.7504 26.5577 12.2418 29.4773 8.93091 30.1162C9.37211 30.2013 9.82739 30.2463 10.2931 30.2463C14.254 30.2463 17.4764 27.0239 17.4764 23.063V21.8767C17.4764 21.5911 17.2707 21.3471 16.9893 21.2987Z" fill="#F7B081"/>
<path d="M32.2974 29.4027C30.6128 28.9659 28.8007 28.9659 27.1163 29.4027C26.831 29.4767 26.6449 29.751 26.6816 30.0435C26.8728 31.5636 28.1734 32.7099 29.7068 32.7099C31.2402 32.7099 32.5408 31.5636 32.732 30.0435C32.7689 29.751 32.5828 29.4767 32.2974 29.4027Z" fill="#E09C77"/>
<path d="M36.403 21.2988C33.5003 20.7998 31.4913 17.8538 31.4718 17.8248C31.3513 17.6443 31.1414 17.5434 30.9259 17.5653C30.71 17.5872 30.5246 17.7247 30.4427 17.9256C30.4392 17.934 30.075 18.7743 29.0059 19.6015C27.5779 20.7063 25.539 21.2903 23.1098 21.2903C22.7859 21.2903 22.5234 21.5528 22.5234 21.8767V23.063C22.5234 27.0239 25.7459 30.2463 29.7068 30.2463C33.6677 30.2463 36.8901 27.0239 36.8901 23.063V21.8767C36.89 21.5912 36.6844 21.3471 36.403 21.2988Z" fill="#FFC89F"/>
<path d="M36.4029 21.2987C35.5754 21.1564 34.8209 20.8151 34.164 20.3993V23.0629C34.164 26.5576 31.6554 29.4772 28.3445 30.1161C28.7857 30.2012 29.241 30.2462 29.7067 30.2462C33.6676 30.2462 36.89 27.0239 36.89 23.0629V21.8766C36.89 21.5911 36.6843 21.3471 36.4029 21.2987Z" fill="#F7B081"/>
<path d="M26.9807 25.1928C26.4565 25.1928 26.03 24.7662 26.03 24.242C26.03 23.7178 26.4565 23.2913 26.9807 23.2913C27.5049 23.2913 27.9314 23.7178 27.9314 24.242C27.9314 24.7663 27.5049 25.1928 26.9807 25.1928Z" fill="#464649"/>
<path d="M32.4329 25.1928C31.9087 25.1928 31.4822 24.7662 31.4822 24.242C31.4822 23.7178 31.9087 23.2913 32.4329 23.2913C32.9572 23.2913 33.3836 23.7178 33.3836 24.242C33.3837 24.7663 32.9572 25.1928 32.4329 25.1928Z" fill="#464649"/>
<path d="M7.56712 25.1928C7.04288 25.1928 6.61646 24.7662 6.61646 24.242C6.61646 23.7178 7.04288 23.2913 7.56712 23.2913C8.09136 23.2913 8.51787 23.7178 8.51787 24.242C8.51787 24.7663 8.09136 25.1928 7.56712 25.1928Z" fill="#464649"/>
<path d="M13.0194 25.1928C12.4951 25.1928 12.0686 24.7662 12.0686 24.242C12.0686 23.7178 12.4951 23.2913 13.0194 23.2913C13.5436 23.2913 13.97 23.7178 13.97 24.242C13.97 24.7663 13.5436 25.1928 13.0194 25.1928Z" fill="#464649"/>
</g>
<defs>
<clipPath id="clip0_51_197">
<rect width="40" height="40" fill="white"/>
</clipPath>
</defs>
</svg>
